<svg xmlns="http://www.w3.org/2000/svg" viewBox="0 0 2812.72 274.02"><defs><style>.cls-1{fill:#b88940;}.cls-2{fill:#0d1329;}</style></defs><title>Element 1</title><g id="Ebene_2" data-name="Ebene 2"><g id="Ebene_1-2" data-name="Ebene 1"><circle class="cls-1" cx="283.49" cy="172.3" r="7.17"/><path class="cls-1" d="M789.28,205a4.93,4.93,0,1,1,4.92,4.93A4.93,4.93,0,0,1,789.28,205Z"/><path class="cls-1" d="M950.82,149.41a7.54,7.54,0,1,1,7.53,7.54A7.54,7.54,0,0,1,950.82,149.41Z"/><path class="cls-1" d="M44.43,28.06a7.67,7.67,0,1,1,7.67,7.66A7.67,7.67,0,0,1,44.43,28.06Z"/><path class="cls-1" d="M660,80.6a4.75,4.75,0,1,1,4.75,4.75A4.75,4.75,0,0,1,660,80.6Z"/><circle class="cls-1" cx="810.31" cy="93.19" r="8.11"/><circle class="cls-1" cx="1010.33" cy="88.96" r="3.98"/><circle class="cls-1" cx="1097.48" cy="115.8" r="8.33"/><path class="cls-1" d="M284,238.08a4.55,4.55,0,1,1,4.55,4.55A4.55,4.55,0,0,1,284,238.08Z"/><ellipse class="cls-1" cx="1112.85" cy="187.28" rx="4.07" ry="4.05"/><ellipse class="cls-1" cx="1052.55" cy="144.08" rx="6.27" ry="6.28"/><path class="cls-1" d="M1172.75,189.41a2.86,2.86,0,1,1-2.85-2.85A2.86,2.86,0,0,1,1172.75,189.41Z"/><path class="cls-1" d="M1081.87,141.65a3.86,3.86,0,1,1-3.86-3.88A3.86,3.86,0,0,1,1081.87,141.65Z"/><path class="cls-1" d="M1177.18,220.13a4.44,4.44,0,1,1-4.44-4.43A4.44,4.44,0,0,1,1177.18,220.13Z"/><path class="cls-1" d="M1053.07,254.19a3.23,3.23,0,1,1-3.23-3.22A3.23,3.23,0,0,1,1053.07,254.19Z"/><path class="cls-1" d="M1033.25,184a5.24,5.24,0,1,1-5.25-5.24A5.24,5.24,0,0,1,1033.25,184Z"/><path class="cls-1" d="M944.45,223.07a5.33,5.33,0,1,1-5.33-5.33A5.33,5.33,0,0,1,944.45,223.07Z"/><path class="cls-1" d="M1087.65,217.8a5.68,5.68,0,1,1-5.67-5.68A5.67,5.67,0,0,1,1087.65,217.8Z"/><circle class="cls-1" cx="1047.78" cy="42.76" r="2.13"/><path class="cls-1" d="M1142.19,63a6.14,6.14,0,1,1-6.14-6.14A6.15,6.15,0,0,1,1142.19,63Z"/><circle class="cls-1" cx="1179.12" cy="83.86" r="5.54"/><path class="cls-1" d="M1150.09,110.14a6.56,6.56,0,1,1-6.57-6.56A6.56,6.56,0,0,1,1150.09,110.14Z"/><ellipse class="cls-1" cx="1055.97" cy="163.07" rx="5.03" ry="5.04"/><path class="cls-1" d="M974.11,121.25a3.47,3.47,0,1,1-3.48-3.46A3.47,3.47,0,0,1,974.11,121.25Z"/><path class="cls-1" d="M954.27,117.57a3.59,3.59,0,1,1-3.58-3.6A3.58,3.58,0,0,1,954.27,117.57Z"/><path class="cls-1" d="M832,174.1a2.36,2.36,0,1,1-2.36-2.37A2.36,2.36,0,0,1,832,174.1Z"/><path class="cls-1" d="M643.86,148.22a6,6,0,1,1-6-6A6,6,0,0,1,643.86,148.22Z"/><circle class="cls-1" cx="589.45" cy="236.07" r="4.93"/><path class="cls-1" d="M884.62,74.93a2.21,2.21,0,1,1-2.21-2.21A2.21,2.21,0,0,1,884.62,74.93Z"/><path class="cls-1" d="M776.46,88.19A5.23,5.23,0,1,1,771.24,83,5.23,5.23,0,0,1,776.46,88.19Z"/><path class="cls-1" d="M674.69,38.14a6.63,6.63,0,1,1-6.64-6.64A6.63,6.63,0,0,1,674.69,38.14Z"/><circle class="cls-1" cx="621.96" cy="105.07" r="4.01"/><path class="cls-1" d="M577.22,109.47a2.14,2.14,0,1,1-2.14-2.15A2.14,2.14,0,0,1,577.22,109.47Z"/><ellipse class="cls-1" cx="512.39" cy="162.67" rx="4.07" ry="4.08"/><path class="cls-1" d="M397.65,120.09a6.27,6.27,0,1,1-6.27-6.27A6.26,6.26,0,0,1,397.65,120.09Z"/><circle class="cls-1" cx="353.66" cy="266.78" r="4.76"/><path class="cls-1" d="M279.6,213.82a4.75,4.75,0,1,1-4.75-4.76A4.75,4.75,0,0,1,279.6,213.82Z"/><path class="cls-1" d="M237.68,144.48a6.5,6.5,0,1,1-6.5-6.51A6.51,6.51,0,0,1,237.68,144.48Z"/><path class="cls-1" d="M87.21,238.1a4.95,4.95,0,1,1-4.95-4.95A4.94,4.94,0,0,1,87.21,238.1Z"/><path class="cls-1" d="M12,246.74a6,6,0,1,1-6-6A6,6,0,0,1,12,246.74Z"/><path class="cls-1" d="M51.9,250.37a2.75,2.75,0,1,1-2.74-2.75A2.75,2.75,0,0,1,51.9,250.37Z"/><path class="cls-1" d="M275.76,158.05a5.84,5.84,0,1,1-5.83-5.84A5.84,5.84,0,0,1,275.76,158.05Z"/><path class="cls-1" d="M338.77,220.37a6.56,6.56,0,1,1-6.57-6.57A6.57,6.57,0,0,1,338.77,220.37Z"/><ellipse class="cls-1" cx="393.73" cy="47" rx="5.83" ry="5.84"/><path class="cls-1" d="M337.18,166.45a6.43,6.43,0,1,1-6.42-6.43A6.42,6.42,0,0,1,337.18,166.45Z"/><path class="cls-1" d="M193.49,162.18a5.43,5.43,0,1,1-5.43-5.44A5.43,5.43,0,0,1,193.49,162.18Z"/><path class="cls-1" d="M109.48,109.71a6.72,6.72,0,1,1-6.72-6.71A6.72,6.72,0,0,1,109.48,109.71Z"/><path class="cls-2" d="M390.76,191.27l-1-.39h0l.54-.37a.55.55,0,1,0-.62-.91l-1.14.78-1.28-.51h0l1.54-1a.55.55,0,1,0-.62-.91L386,189.37l-1.5-.63,2.66-1.8a.55.55,0,0,0-.62-.91l-3.28,2.23-1.61-.64,3.84-2.47a.52.52,0,0,0,.24-.46.58.58,0,0,0-.24-.46l-3.84-2.45,1.59-.66,3.31,2.24a.52.52,0,0,0,.31.1.55.55,0,0,0,.31-1l-2.67-1.81h0L386,180l2.16,1.46a.56.56,0,0,0,.31.09.55.55,0,0,0,.46-.24.55.55,0,0,0-.15-.77l-1.53-1,1.27-.51h0l1.14.77a.57.57,0,0,0,.31.09.54.54,0,0,0,.45-.24.55.55,0,0,0-.15-.77l-.53-.36h0l1-.4a.56.56,0,0,0,.31-.73.54.54,0,0,0-.71-.31l-1.21.48h0l.17-1a.55.55,0,0,0-.45-.64.56.56,0,0,0-.64.45l-.29,1.66h0l-1.28.51.37-2.15a.55.55,0,0,0-.45-.64.56.56,0,0,0-.64.45l-.48,2.82h0l-1.25.51.5-3a.55.55,0,0,0-.45-.64.56.56,0,0,0-.63.45L383,180l-1.51.61.83-4.63a.63.63,0,0,0-.15-.48.51.51,0,0,0-.48-.16l-4.65.84.62-1.52h0l3.64-.62a.55.55,0,0,0,.45-.63.56.56,0,0,0-.63-.45l-3,.51h0l.51-1.25h0l2.83-.48a.55.55,0,0,0,.45-.63.56.56,0,0,0-.63-.45l-2.16.37h0l.51-1.27,1.67-.28a.55.55,0,0,0-.18-1.09l-1,.17v0l.49-1.19a.57.57,0,0,0-.31-.73.55.55,0,0,0-.71.31l-.42,1h0l-.35-.52a.55.55,0,0,0-.91.62l.78,1.16h0l-.5,1.26v0h0l-1-1.55a.55.55,0,1,0-.91.62l1.46,2.15h0l-.62,1.5h0l-1.81-2.66a.55.55,0,1,0-.91.62l2.24,3.3h0l-.64,1.58-2.47-3.81a.58.58,0,0,0-.93,0L370.08,176l-.64-1.58h0l2.24-3.3a.55.55,0,1,0-.91-.62L369,173.21h0l-.62-1.5h0l1.46-2.15a.55.55,0,1,0-.91-.62l-1,1.55h0v0l-.51-1.26h0l.78-1.16a.54.54,0,0,0-.15-.76.55.55,0,0,0-.76.14l-.35.52h0l-.42-1a.55.55,0,0,0-.71-.31.57.57,0,0,0-.31.73l.48,1.19v0l-1-.17a.56.56,0,0,0-.64.45.55.55,0,0,0,.45.64l1.67.28.5,1.27h0l-2.16-.37a.56.56,0,0,0-.64.45.55.55,0,0,0,.45.63l2.83.48h0l.51,1.25h0l-3-.51a.56.56,0,0,0-.63.45.54.54,0,0,0,.45.63l3.64.62h0l.62,1.52-4.65-.84a.51.51,0,0,0-.48.16.63.63,0,0,0-.15.48l.84,4.63L363,180l-.62-3.64a.55.55,0,1,0-1.09.19l.5,3-1.25-.51h0l-.48-2.82a.55.55,0,0,0-1.09.19l.37,2.15-1.28-.51h0l-.28-1.66a.55.55,0,1,0-1.09.18l.17,1h0l-1.21-.48a.55.55,0,0,0-.71.31.56.56,0,0,0,.31.73l1,.4h0l-.53.36a.55.55,0,0,0-.15.77.54.54,0,0,0,.45.24.57.57,0,0,0,.31-.09l1.13-.77h0l1.27.51-1.53,1a.55.55,0,0,0,.62.91L360,180l1.51.61h0l-2.67,1.81a.55.55,0,0,0,.31,1,.53.53,0,0,0,.31-.1l3.31-2.24,1.59.66-3.83,2.45a.58.58,0,0,0-.24.46.52.52,0,0,0,.24.46l3.83,2.47-1.61.64L359.48,186a.55.55,0,0,0-.62.91l2.66,1.8-1.5.63-2.16-1.46a.55.55,0,1,0-.62.91l1.53,1h0l-1.28.51-1.14-.78a.55.55,0,1,0-.62.91l.54.37h0l-1,.39a.55.55,0,0,0-.31.71.53.53,0,0,0,.71.31l1.22-.48-.17,1a.55.55,0,0,0,.45.64h.09a.55.55,0,0,0,.54-.45l.28-1.67h0l1.28-.51h0L359,193a.55.55,0,0,0,.45.64h.09a.55.55,0,0,0,.54-.46l.48-2.83h0l1.25-.51h0l-.5,3a.55.55,0,0,0,.45.64h.09a.55.55,0,0,0,.54-.46l.62-3.65,1.53-.61-.86,4.65a.63.63,0,0,0,.15.48.56.56,0,0,0,.48.15l4.63-.84-.59,1.52-3.64.62a.55.55,0,0,0,.19,1.09l3-.5-.5,1.26-2.83.48a.55.55,0,1,0,.18,1.09l2.16-.37-.5,1.27h0l-1.66.28a.55.55,0,0,0,.19,1.09l1-.17h0l-.48,1.21a.53.53,0,0,0,.31.7.32.32,0,0,0,.2,0,.56.56,0,0,0,.5-.33l.42-1,.36.53a.55.55,0,0,0,.91-.62l-.78-1.15.53-1.25,1,1.52a.55.55,0,0,0,.45.24.52.52,0,0,0,.31-.1.55.55,0,0,0,.15-.77l-1.45-2.15h0l.61-1.51,1.81,2.67a.55.55,0,0,0,.46.24.56.56,0,0,0,.31-.1.55.55,0,0,0,.15-.77l-2.23-3.3.64-1.58,2.47,3.81a.58.58,0,0,0,.46.24.58.58,0,0,0,.47-.24l2.47-3.81.64,1.58-2.24,3.3a.55.55,0,0,0,.15.77.57.57,0,0,0,.31.1.54.54,0,0,0,.45-.24l1.81-2.67.61,1.51h0l-1.45,2.15a.55.55,0,0,0,.15.77.52.52,0,0,0,.31.1.56.56,0,0,0,.46-.24l1-1.52.53,1.25-.78,1.15a.55.55,0,1,0,.91.62l.36-.53.42,1a.56.56,0,0,0,.51.33.31.31,0,0,0,.2,0,.54.54,0,0,0,.31-.7l-.49-1.21h0l1,.17a.54.54,0,0,0,.63-.45.55.55,0,0,0-.45-.64l-1.67-.28h0l-.51-1.27,2.16.37a.54.54,0,0,0,.63-.45.55.55,0,0,0-.45-.64l-2.83-.48-.5-1.26,3,.5a.55.55,0,1,0,.18-1.09l-3.64-.62-.59-1.52,4.63.84a.55.55,0,0,0,.48-.15.63.63,0,0,0,.15-.48l-.86-4.65,1.53.61.62,3.65a.55.55,0,0,0,.54.46h.09a.55.55,0,0,0,.45-.64l-.5-3h0l1.25.51h0l.48,2.83a.55.55,0,0,0,.54.46h.09A.55.55,0,0,0,387,193l-.37-2.17h0l1.28.51h0l.29,1.67a.55.55,0,0,0,.54.45h.1a.55.55,0,0,0,.45-.64l-.17-1,1.22.48a.54.54,0,1,0,.4-1Zm-10.35-9,3.75,2.4-3.75,2.42-3-1.19.4-1a.62.62,0,0,0,0-.4l-.4-1,3-1.19Zm-3.73,2.4-.31.81-.4,1-.31.82-.82.31-1,.4-.82.31-.81-.31-1-.4-.82-.31-.31-.82-.4-1-.31-.81.31-.82.4-1,.31-.82.82-.31,1-.4L373,181l.82.31,1,.4.82.31.31.82.4,1Zm4.41-8.09-.82,4.54-3.26,1.3-.39-1a.51.51,0,0,0-.33-.31l-1-.4,1.32-3.28ZM373,173.54l2.43,3.74-1.19,3-1-.4a.63.63,0,0,0-.4,0l-1,.4-1.19-3Zm-8.08,3.06,4.52.81,1.32,3.28-1,.4a.51.51,0,0,0-.33.31l-.39,1-3.26-1.3Zm-3.06,8.09,3.75-2.4,0,0,3,1.19-.39,1a.59.59,0,0,0,0,.4l.39,1-3,1.19Zm3.06,8.08.82-4.54,3.26-1.3.39,1.06a.57.57,0,0,0,.33.31l1,.39-1.3,3.26Zm8.08,3.07-2.42-3.75,1.21-3,1,.4a.48.48,0,0,0,.4,0l1-.4,1.21,3Zm8.09-3.07-4.54-.81-1.3-3.26,1-.39a.57.57,0,0,0,.33-.31l.39-1.06,3.26,1.3Z"/><path class="cls-2" d="M108.2,164.34l-2.45-1h0l1.3-.88a1.33,1.33,0,0,0-1.49-2.21l-2.77,1.88-3.09-1.22h0l3.71-2.51a1.33,1.33,0,0,0-1.49-2.21l-5.22,3.54L93,158.23l6.43-4.35A1.33,1.33,0,0,0,98,151.66L90,157.05l-3.89-1.54,9.27-6a1.24,1.24,0,0,0,.58-1.12,1.38,1.38,0,0,0-.58-1.11l-9.27-5.91L90,139.8l8,5.43a1.37,1.37,0,0,0,.75.22,1.33,1.33,0,0,0,.75-2.44L93,138.63h0l3.66-1.48,5.21,3.53a1.33,1.33,0,0,0,1.49-2.21L99.69,136l3.08-1.22h0l2.75,1.87a1.37,1.37,0,0,0,.75.22,1.33,1.33,0,0,0,.75-2.43l-1.29-.87h0l2.45-1a1.36,1.36,0,0,0,.75-1.76,1.32,1.32,0,0,0-1.71-.75l-2.92,1.17h0l.41-2.4a1.33,1.33,0,0,0-1.09-1.54,1.36,1.36,0,0,0-1.54,1.09l-.68,4h0l-3.09,1.23.89-5.2a1.33,1.33,0,1,0-2.63-.45l-1.16,6.81h0l-3,1.22,1.21-7.15a1.33,1.33,0,1,0-2.62-.44l-1.49,8.77-3.66,1.48,2-11.18a1.55,1.55,0,0,0-.37-1.17,1.24,1.24,0,0,0-1.18-.38L75,128l1.49-3.67h0l8.79-1.49a1.33,1.33,0,0,0-.44-2.63l-7.18,1.22v0l1.22-3h0l6.83-1.17a1.33,1.33,0,0,0,1.09-1.53,1.35,1.35,0,0,0-1.54-1.09l-5.22.89v0l1.22-3.08,4-.69a1.33,1.33,0,0,0-.45-2.62l-2.43.41v0l1.18-2.88a1.36,1.36,0,0,0-.75-1.76,1.31,1.31,0,0,0-1.7.75l-1,2.45h0l-.86-1.26a1.33,1.33,0,0,0-2.2,1.49L79,111h0l-1.22,3v.05h0l-2.53-3.74a1.33,1.33,0,1,0-2.21,1.49L76.58,117v0l-1.49,3.63h0l-4.37-6.44a1.33,1.33,0,0,0-2.21,1.49l5.41,8h0l-1.55,3.83-6-9.21a1.4,1.4,0,0,0-2.24,0l-6,9.21-1.54-3.83h0l5.41-8a1.33,1.33,0,1,0-2.2-1.49l-4.37,6.44h0L54,117.06v0l3.53-5.21a1.33,1.33,0,1,0-2.21-1.49l-2.53,3.74h0V114l-1.22-3h0l1.89-2.79a1.33,1.33,0,0,0-2.21-1.49L50.38,108h0l-1-2.45a1.31,1.31,0,0,0-1.7-.75,1.35,1.35,0,0,0-.74,1.76l1.17,2.88,0,0L45.68,109a1.35,1.35,0,0,0-1.54,1.09,1.34,1.34,0,0,0,1.09,1.54l4,.69,1.22,3.08v0l-5.23-.89a1.35,1.35,0,0,0-1.54,1.09,1.33,1.33,0,0,0,1.09,1.53l6.83,1.17h0l1.22,3v0l-7.18-1.22a1.35,1.35,0,0,0-1.54,1.09,1.34,1.34,0,0,0,1.09,1.54l8.79,1.49h0L55.54,128l-11.23-2a1.24,1.24,0,0,0-1.17.38,1.55,1.55,0,0,0-.37,1.17l2,11.18-3.65-1.48-1.49-8.77a1.33,1.33,0,0,0-2.63.44L38.23,136l-3-1.22h0L34,128a1.33,1.33,0,1,0-2.63.45l.89,5.2-3.09-1.23h0l-.68-4a1.33,1.33,0,0,0-2.63.44l.41,2.4h0l-2.93-1.17a1.32,1.32,0,0,0-1.71.75,1.36,1.36,0,0,0,.75,1.76l2.45,1h0l-1.29.87a1.33,1.33,0,0,0,.75,2.43,1.38,1.38,0,0,0,.75-.22l2.75-1.87h0L30.88,136l-3.69,2.5a1.33,1.33,0,1,0,1.49,2.21l5.21-3.53,3.66,1.48h0L31.1,143a1.33,1.33,0,0,0,.75,2.44,1.37,1.37,0,0,0,.75-.22l8-5.43,3.84,1.6-9.27,5.91a1.38,1.38,0,0,0-.59,1.11,1.25,1.25,0,0,0,.59,1.12l9.27,6-3.89,1.54-7.94-5.39a1.33,1.33,0,1,0-1.49,2.21l6.43,4.35-3.62,1.53-5.22-3.54a1.33,1.33,0,1,0-1.49,2.21l3.71,2.51h0l-3.09,1.22L25,160.28a1.33,1.33,0,0,0-1.49,2.21l1.3.88h0l-2.45,1a1.32,1.32,0,0,0-.75,1.71,1.27,1.27,0,0,0,1.71.74l2.95-1.16-.42,2.42A1.33,1.33,0,0,0,27,169.59l.23,0a1.34,1.34,0,0,0,1.31-1.11l.69-4h0l3.09-1.22h0l-.89,5.23A1.33,1.33,0,0,0,32.48,170l.22,0A1.34,1.34,0,0,0,34,168.91l1.16-6.84h0l3-1.22h0L37,168a1.33,1.33,0,0,0,1.09,1.54l.22,0a1.34,1.34,0,0,0,1.32-1.11l1.49-8.82,3.7-1.48L42.77,169.4a1.54,1.54,0,0,0,.37,1.17,1.37,1.37,0,0,0,1.17.37l11.18-2-1.43,3.66-8.8,1.49a1.33,1.33,0,0,0,.45,2.63l7.16-1.22-1.21,3.06-6.84,1.16a1.33,1.33,0,0,0,.44,2.63l5.21-.89-1.22,3.07v0l-4,.68a1.33,1.33,0,1,0,.45,2.63l2.4-.41h0l-1.17,2.93a1.3,1.3,0,0,0,.74,1.7.81.81,0,0,0,.48.1,1.34,1.34,0,0,0,1.22-.79l1-2.49.87,1.28a1.35,1.35,0,0,0,1.11.58,1.3,1.3,0,0,0,.75-.23,1.34,1.34,0,0,0,.36-1.85l-1.89-2.78,1.27-3,2.48,3.67a1.31,1.31,0,0,0,1.1.58,1.26,1.26,0,0,0,.75-.23,1.33,1.33,0,0,0,.36-1.85L54,179.85h0l1.49-3.66,4.38,6.45a1.31,1.31,0,0,0,1.1.59,1.33,1.33,0,0,0,1.1-2.08l-5.4-8,1.54-3.83,6,9.22a1.37,1.37,0,0,0,2.24,0l6-9.22,1.55,3.83-5.41,8a1.33,1.33,0,0,0,1.11,2.08,1.31,1.31,0,0,0,1.1-.59l4.38-6.45,1.48,3.66h0L73.06,185a1.33,1.33,0,0,0,.35,1.85,1.29,1.29,0,0,0,.75.23,1.32,1.32,0,0,0,1.1-.58l2.48-3.67,1.28,3-1.89,2.78a1.34,1.34,0,0,0,.35,1.85,1.3,1.3,0,0,0,.75.23,1.33,1.33,0,0,0,1.1-.58l.87-1.28,1,2.49a1.33,1.33,0,0,0,1.22.79.79.79,0,0,0,.48-.1,1.3,1.3,0,0,0,.75-1.7l-1.18-2.93h0l2.41.41a1.31,1.31,0,0,0,1.54-1.09,1.34,1.34,0,0,0-1.09-1.54l-4-.68v0l-1.22-3.07,5.21.89a1.33,1.33,0,1,0,.45-2.63l-6.84-1.16-1.21-3.06,7.16,1.22a1.33,1.33,0,0,0,.44-2.63l-8.79-1.49-1.43-3.66,11.17,2a1.38,1.38,0,0,0,1.18-.37,1.54,1.54,0,0,0,.37-1.17l-2.08-11.23,3.7,1.48,1.5,8.82a1.33,1.33,0,0,0,1.31,1.11l.22,0A1.34,1.34,0,0,0,93.55,168l-1.22-7.19h0l3,1.22h0l1.16,6.84A1.33,1.33,0,0,0,97.87,170l.23,0a1.34,1.34,0,0,0,1.09-1.54l-.89-5.23h0l3.09,1.22h0l.69,4a1.34,1.34,0,0,0,1.32,1.11l.22,0a1.33,1.33,0,0,0,1.09-1.54l-.41-2.42,2.95,1.16a1.32,1.32,0,1,0,1-2.45Zm-25-21.72,9.05,5.8-9.05,5.86-7.29-2.88,1-2.5a1.48,1.48,0,0,0,0-1l-1-2.51,7.24-2.88Zm-9,5.8-.75,2-1,2.5-.74,2-2,.75-2.5,1-2,.75-2-.75-2.5-1-2-.75-.75-2-1-2.5-.75-2,.75-2,1-2.5.75-2,2-.75,2.5-1,2-.75,2,.75,2.5,1,2,.75.74,2,1,2.5Zm10.65-19.54-2,11L75,143l-1-2.51a1.27,1.27,0,0,0-.8-.74l-2.5-1,3.2-7.93Zm-19.54-7.4,5.86,9.05-2.88,7.29-2.5-1a1.49,1.49,0,0,0-1,0l-2.51,1-2.87-7.29Zm-19.54,7.4,10.91,2,3.2,7.93-2.51,1a1.25,1.25,0,0,0-.79.74l-1,2.51-7.88-3.14Zm-7.41,19.54,9.06-5.8.05-.05,7.24,2.88-1,2.51a1.47,1.47,0,0,0,0,1l1,2.5-7.29,2.88ZM45.75,168l2-11,7.88-3.14,1,2.55a1.37,1.37,0,0,0,.79.75l2.51,1L56.71,166Zm19.54,7.4-5.86-9.05,2.93-7.3,2.45,1a1.14,1.14,0,0,0,1,0l2.45-1,2.93,7.3ZM84.82,168l-11-2-3.14-7.88,2.5-1a1.4,1.4,0,0,0,.8-.75l1-2.55L82.85,157Z"/><path class="cls-2" d="M1113.37,82.85l-2.85-1.11h0l1.51-1a1.55,1.55,0,1,0-1.73-2.56l-3.21,2.18-3.59-1.43h0l4.32-2.92a1.55,1.55,0,0,0-1.74-2.56L1100,77.52l-4.21-1.78,7.47-5.07a1.55,1.55,0,0,0-1.73-2.56l-9.23,6.26-4.52-1.79,10.77-6.94a1.47,1.47,0,0,0,.68-1.3,1.62,1.62,0,0,0-.68-1.3l-10.77-6.87,4.46-1.86,9.29,6.31a1.59,1.59,0,0,0,.87.26,1.53,1.53,0,0,0,1.28-.68,1.55,1.55,0,0,0-.41-2.15l-7.51-5.1h0l4.26-1.73,6.05,4.1a1.57,1.57,0,0,0,.87.26,1.55,1.55,0,0,0,.87-2.83l-4.3-2.91,3.58-1.42h0l3.2,2.16A1.55,1.55,0,1,0,1112,48l-1.5-1h0l2.85-1.11a1.58,1.58,0,0,0,.87-2,1.53,1.53,0,0,0-2-.87l-3.4,1.37h0l.48-2.79a1.55,1.55,0,0,0-1.26-1.78,1.58,1.58,0,0,0-1.79,1.27l-.79,4.65h0l-3.58,1.43,1-6a1.55,1.55,0,1,0-3.05-.53l-1.35,7.92h0l-3.52,1.42,1.41-8.31a1.56,1.56,0,0,0-1.27-1.79,1.58,1.58,0,0,0-1.78,1.27l-1.73,10.2L1087.31,53l2.35-13a1.81,1.81,0,0,0-.43-1.36,1.45,1.45,0,0,0-1.36-.44l-13.06,2.35,1.74-4.27h0l10.22-1.73a1.55,1.55,0,1,0-.52-3.05l-8.35,1.42v0l1.43-3.53h0l7.94-1.35a1.55,1.55,0,1,0-.52-3.05l-6.07,1v0l1.42-3.57,4.69-.8a1.55,1.55,0,0,0-.52-3.05l-2.82.48,0-.05,1.37-3.34a1.58,1.58,0,0,0-.87-2,1.53,1.53,0,0,0-2,.87l-1.18,2.85h0l-1-1.47a1.55,1.55,0,0,0-2.56,1.74l2.2,3.24h0L1078,24.36v.06h0l-2.94-4.35a1.55,1.55,0,1,0-2.56,1.74l4.1,6v0l-1.73,4.21h0l-5.08-7.49a1.55,1.55,0,1,0-2.56,1.74l6.28,9.26h0l-1.8,4.45-6.93-10.71a1.63,1.63,0,0,0-2.6,0l-6.94,10.71-1.79-4.45h0l6.28-9.26a1.55,1.55,0,1,0-2.56-1.74l-5.08,7.49h0l-1.74-4.21v0l4.1-6a1.55,1.55,0,1,0-2.56-1.74l-2.94,4.35h0v-.06l-1.42-3.54h0l2.2-3.24a1.55,1.55,0,0,0-2.56-1.74l-1,1.47h0L1045,14.45a1.53,1.53,0,0,0-2-.87,1.58,1.58,0,0,0-.86,2l1.36,3.34,0,.05-2.82-.48a1.57,1.57,0,0,0-1.78,1.26,1.55,1.55,0,0,0,1.27,1.79l4.69.8,1.41,3.57v0l-6.08-1a1.57,1.57,0,0,0-1.79,1.26,1.55,1.55,0,0,0,1.27,1.79l7.94,1.35h0l1.43,3.53v0l-8.35-1.42a1.55,1.55,0,0,0-.52,3.05l10.22,1.73h0l1.73,4.27-13.06-2.35a1.46,1.46,0,0,0-1.36.44,1.82,1.82,0,0,0-.43,1.36l2.35,13-4.25-1.72-1.73-10.2a1.55,1.55,0,1,0-3.05.52l1.41,8.31-3.52-1.42h0l-1.35-7.92a1.55,1.55,0,1,0-3.05.53l1,6-3.59-1.43h0l-.79-4.65a1.55,1.55,0,0,0-3.06.52l.48,2.79h0L1014.7,43a1.54,1.54,0,0,0-2,.87,1.58,1.58,0,0,0,.87,2l2.85,1.11h0l-1.5,1a1.55,1.55,0,1,0,1.74,2.56l3.19-2.16h0l3.58,1.42-4.29,2.91a1.55,1.55,0,0,0,.87,2.83,1.57,1.57,0,0,0,.87-.26l6-4.1,4.26,1.73h0l-7.51,5.1a1.55,1.55,0,0,0,.87,2.83,1.61,1.61,0,0,0,.87-.26l9.29-6.31,4.46,1.86L1028.44,63a1.62,1.62,0,0,0-.68,1.3,1.47,1.47,0,0,0,.68,1.3l10.77,6.94-4.52,1.79-9.23-6.26a1.55,1.55,0,1,0-1.74,2.56l7.47,5.07L1027,77.52l-6.07-4.11a1.55,1.55,0,1,0-1.74,2.56l4.31,2.92h0l-3.59,1.43-3.21-2.18a1.55,1.55,0,0,0-1.74,2.56l1.51,1h0l-2.85,1.11a1.54,1.54,0,0,0-.87,2,1.48,1.48,0,0,0,2,.86l3.43-1.34-.48,2.81a1.55,1.55,0,0,0,1.27,1.79l.26,0a1.55,1.55,0,0,0,1.52-1.29l.8-4.7h0l3.59-1.43h0l-1,6.09a1.55,1.55,0,0,0,1.27,1.79l.26,0a1.55,1.55,0,0,0,1.53-1.29l1.35-8h0l3.53-1.43h0l-1.42,8.36a1.55,1.55,0,0,0,1.27,1.78l.26,0a1.55,1.55,0,0,0,1.53-1.29l1.74-10.25,4.3-1.72-2.42,13.06a1.8,1.8,0,0,0,.43,1.36,1.6,1.6,0,0,0,1.36.44l13-2.35-1.67,4.27-10.22,1.74a1.55,1.55,0,0,0,.52,3.05l8.33-1.42-1.41,3.55-8,1.35a1.55,1.55,0,0,0,.52,3.05l6.05-1-1.41,3.57v0l-4.67.8a1.55,1.55,0,0,0,.52,3.05l2.8-.48h0l-1.36,3.4a1.51,1.51,0,0,0,.86,2,.93.93,0,0,0,.56.12,1.56,1.56,0,0,0,1.42-.93l1.17-2.89,1,1.49a1.57,1.57,0,0,0,1.28.68,1.53,1.53,0,0,0,.87-.27,1.56,1.56,0,0,0,.42-2.15l-2.2-3.24,1.48-3.51,2.88,4.26a1.55,1.55,0,0,0,1.28.68,1.52,1.52,0,0,0,.87-.26,1.55,1.55,0,0,0,.41-2.15l-4.09-6h0l1.73-4.25,5.09,7.49a1.55,1.55,0,1,0,2.56-1.73l-6.28-9.26,1.79-4.45,6.94,10.71a1.6,1.6,0,0,0,1.3.68,1.62,1.62,0,0,0,1.3-.68l6.93-10.71,1.8,4.45-6.28,9.26a1.55,1.55,0,0,0,.42,2.15,1.52,1.52,0,0,0,.87.27,1.55,1.55,0,0,0,1.28-.68l5.09-7.49,1.73,4.25h0l-4.09,6a1.55,1.55,0,0,0,.42,2.15,1.53,1.53,0,0,0,.87.26,1.55,1.55,0,0,0,1.28-.68l2.88-4.26,1.48,3.51-2.2,3.24a1.55,1.55,0,0,0,.42,2.15,1.51,1.51,0,0,0,.87.27,1.56,1.56,0,0,0,1.28-.68l1-1.49,1.17,2.89a1.56,1.56,0,0,0,1.42.93.92.92,0,0,0,.56-.12,1.51,1.51,0,0,0,.87-2l-1.37-3.4h0l2.8.48a1.53,1.53,0,0,0,1.78-1.27,1.55,1.55,0,0,0-1.27-1.78l-4.67-.8v0l-1.42-3.57,6.05,1a1.55,1.55,0,0,0,.52-3.05l-7.95-1.35-1.41-3.55,8.33,1.42a1.55,1.55,0,1,0,.52-3.05l-10.22-1.74-1.67-4.27,13,2.35a1.59,1.59,0,0,0,1.36-.44,1.79,1.79,0,0,0,.43-1.36l-2.41-13.06,4.3,1.72,1.74,10.25a1.55,1.55,0,0,0,1.52,1.29l.26,0a1.55,1.55,0,0,0,1.27-1.78l-1.42-8.36h0l3.53,1.43h0l1.35,8a1.55,1.55,0,0,0,1.52,1.29l.27,0a1.55,1.55,0,0,0,1.26-1.79l-1-6.09h0l3.58,1.43h0l.8,4.7a1.55,1.55,0,0,0,1.53,1.29l.26,0a1.55,1.55,0,0,0,1.26-1.79l-.48-2.81,3.43,1.34a1.53,1.53,0,1,0,1.11-2.85Zm-29.1-25.25,10.53,6.75-10.53,6.81-8.48-3.34,1.11-2.91a1.73,1.73,0,0,0,0-1.11l-1.11-2.91,8.42-3.34Zm-10.46,6.75-.87,2.29-1.11,2.9-.86,2.3-2.29.87-2.91,1.11-2.29.87-2.29-.87-2.91-1.11-2.29-.87-.87-2.3-1.11-2.9-.87-2.29.87-2.29,1.11-2.91.87-2.29,2.29-.87,2.91-1.12,2.29-.86,2.29.86,2.91,1.12,2.29.87.86,2.29,1.11,2.91Zm12.38-22.72-2.29,12.76L1074.74,58l-1.11-2.91a1.45,1.45,0,0,0-.93-.86l-2.91-1.12,3.72-9.22ZM1063.47,33l6.81,10.52L1066.94,52,1064,50.92a1.7,1.7,0,0,0-1.11,0L1060,52l-3.34-8.48Zm-22.71,8.6,12.69,2.29,3.72,9.22-2.91,1.12a1.43,1.43,0,0,0-.93.86L1052.21,58,1043,54.38Zm-8.61,22.72,10.53-6.75.06-.06,8.42,3.34L1050,63.79a1.69,1.69,0,0,0,0,1.11l1.11,2.91-8.48,3.34Zm8.61,22.72L1043,74.31l9.16-3.65,1.11,3a1.61,1.61,0,0,0,.93.87l2.91,1.11-3.65,9.17Zm22.71,8.61-6.81-10.52,3.41-8.49,2.85,1.12a2,2,0,0,0,.56.12,1.94,1.94,0,0,0,.56-.12l2.85-1.12,3.41,8.49Zm22.72-8.61-12.75-2.29-3.65-9.17,2.91-1.11a1.63,1.63,0,0,0,.93-.87l1.11-3,9.16,3.65Z"/><path class="cls-2" d="M729.46,228.48l-3.21-1.22,2.77-1.55a.79.79,0,0,0-.77-1.38l-3.93,2.19-2.33-.89,2.88-1.61a.79.79,0,1,0-.77-1.38l-4,2.25-8-3,8-3,4,2.25a.8.8,0,0,0,.39.11.81.81,0,0,0,.69-.41.79.79,0,0,0-.3-1.08L722,218.08l2.33-.88,3.93,2.19a.75.75,0,0,0,.39.1A.79.79,0,0,0,729,218l-2.77-1.55,3.21-1.22a.79.79,0,0,0-.56-1.48L725.57,215l1-3.43a.79.79,0,1,0-1.52-.43l-1.28,4.55-2.28.87.93-3.32a.79.79,0,1,0-1.52-.43l-1.25,4.45-8.39,3.2,3.2-8.39,4.45-1.24a.79.79,0,0,0-.43-1.52l-3.32.93L716,208l4.56-1.27a.79.79,0,0,0,.55-1,.78.78,0,0,0-1-.55l-3.43,1,1.27-3.33a.79.79,0,0,0-1.48-.56l-1.22,3.21-1.55-2.77a.79.79,0,0,0-1.38.78l2.19,3.93-.88,2.33L712,206.84a.79.79,0,1,0-1.38.78l2.25,4-3,8-3-8,2.25-4a.79.79,0,1,0-1.38-.78l-1.61,2.88-.88-2.33,2.19-3.93a.79.79,0,0,0-1.38-.78l-1.55,2.77-1.22-3.21a.79.79,0,0,0-1.48.56l1.27,3.33-3.43-1a.79.79,0,1,0-.43,1.52l4.56,1.27.87,2.28-3.32-.93a.79.79,0,0,0-.43,1.52l4.45,1.24,3.2,8.39-8.39-3.2-1.25-4.45a.78.78,0,0,0-1-.55.8.8,0,0,0-.55,1l.93,3.32-2.28-.87-1.28-4.55a.79.79,0,1,0-1.52.43l1,3.43-3.33-1.27a.79.79,0,1,0-.56,1.48l3.21,1.22L690.7,218a.79.79,0,0,0,.39,1.48.75.75,0,0,0,.39-.1l3.93-2.19,2.33.88-2.88,1.61a.79.79,0,0,0-.31,1.08.81.81,0,0,0,.69.41.8.8,0,0,0,.39-.11l4-2.25,8,3-8,3-4-2.25a.79.79,0,1,0-.77,1.38l2.88,1.61-2.33.89-3.93-2.19a.79.79,0,1,0-.77,1.38l2.77,1.55-3.21,1.22a.79.79,0,0,0,.28,1.53.81.81,0,0,0,.28-.05l3.33-1.27-1,3.43a.79.79,0,0,0,.55,1l.22,0a.79.79,0,0,0,.76-.57L696,228l2.28-.87-.93,3.32a.8.8,0,0,0,.55,1l.21,0a.79.79,0,0,0,.76-.58l1.25-4.44,8.39-3.2-3.2,8.39-4.45,1.25a.79.79,0,0,0,.43,1.52l3.32-.93-.87,2.29L699.17,237a.79.79,0,1,0,.43,1.52l3.43-1-1.27,3.33a.79.79,0,0,0,1.48.56l1.22-3.21L706,241a.79.79,0,0,0,1.38-.77l-2.19-3.93.88-2.33,1.61,2.88a.79.79,0,0,0,.69.4.74.74,0,0,0,.39-.1.79.79,0,0,0,.31-1.08l-2.25-4,3-8,3,8-2.25,4a.79.79,0,0,0,.3,1.08.76.76,0,0,0,.39.1.79.79,0,0,0,.69-.4l1.61-2.88.88,2.33-2.19,3.93a.8.8,0,0,0,.3,1.08.79.79,0,0,0,1.08-.31l1.55-2.77,1.22,3.21a.79.79,0,0,0,.74.51.72.72,0,0,0,.28-.05.78.78,0,0,0,.46-1l-1.27-3.33,3.43,1a.78.78,0,0,0,1-.55.79.79,0,0,0-.55-1L716,235.73l-.87-2.29,3.32.93a.78.78,0,0,0,1-.55.79.79,0,0,0-.55-1l-4.45-1.25-3.2-8.39,8.39,3.2,1.25,4.44a.79.79,0,0,0,.76.58l.21,0a.79.79,0,0,0,.55-1l-.93-3.32,2.28.87,1.28,4.55a.79.79,0,0,0,.76.57l.22,0a.79.79,0,0,0,.55-1l-1-3.43L728.9,230a.82.82,0,0,0,.28.05.79.79,0,0,0,.28-1.53Z"/><path class="cls-2" d="M586.66,100l-3.85-1.47,3.33-1.86a.95.95,0,0,0-.93-1.66l-4.72,2.63L577.7,96.6l3.45-1.93a1,1,0,0,0,.37-1.29,1,1,0,0,0-1.29-.37l-4.84,2.7-9.58-3.65,9.58-3.66,4.84,2.7a.94.94,0,0,0,.46.12.95.95,0,0,0,.46-1.78l-3.45-1.93,2.79-1.06,4.72,2.63a.94.94,0,0,0,.46.12.95.95,0,0,0,.46-1.78l-3.33-1.86,3.85-1.47a.94.94,0,0,0,.55-1.22,1,1,0,0,0-1.22-.55l-4,1.52,1.16-4.11a.95.95,0,0,0-1.83-.51l-1.53,5.47-2.74,1,1.12-4a.95.95,0,1,0-1.83-.52l-1.49,5.34-10.07,3.84,3.83-10.07,5.34-1.49a1,1,0,0,0,.66-1.17,1,1,0,0,0-1.17-.66l-4,1.12,1-2.74L576,73.88a.95.95,0,1,0-.51-1.82l-4.11,1.15,1.52-4a.95.95,0,0,0-1.77-.67l-1.47,3.86-1.85-3.33a.95.95,0,0,0-1.66.93l2.63,4.71-1.06,2.79L565.75,74a.95.95,0,1,0-1.66.92l2.7,4.84-3.65,9.58-3.65-9.58,2.7-4.84a.95.95,0,1,0-1.66-.92l-1.93,3.45-1.06-2.79L560.17,70a.95.95,0,0,0-1.66-.93l-1.86,3.33-1.47-3.86a.95.95,0,0,0-1.77.67l1.52,4-4.12-1.15a.95.95,0,1,0-.51,1.82l5.47,1.53,1,2.74-4-1.12a.95.95,0,1,0-.51,1.83l5.34,1.49,3.83,10.07-10.07-3.84-1.49-5.34a.95.95,0,0,0-1.83.52l1.12,4-2.74-1L545,79.24a.95.95,0,0,0-1.83.51l1.15,4.11-4-1.52a1,1,0,0,0-1.22.55.94.94,0,0,0,.55,1.22l3.85,1.47-3.33,1.86a.95.95,0,0,0,.93,1.66l4.72-2.63,2.79,1.06-3.45,1.93a.95.95,0,0,0,.46,1.78.94.94,0,0,0,.46-.12l4.84-2.7,9.58,3.66-9.58,3.65L546.05,93a.95.95,0,0,0-.93,1.66l3.45,1.93-2.79,1.06L541.07,95a.95.95,0,1,0-.93,1.66l3.33,1.86L539.62,100a.95.95,0,0,0,.33,1.83,1.06,1.06,0,0,0,.34-.06l4-1.52-1.15,4.11a1,1,0,0,0,.66,1.17.93.93,0,0,0,.26,0,1,1,0,0,0,.91-.7l1.53-5.46,2.74-1-1.12,4a1,1,0,0,0,.66,1.17,1,1,0,0,0,.26,0,1,1,0,0,0,.91-.69l1.49-5.33L561.5,93.7l-3.83,10.07-5.34,1.49a1,1,0,0,0-.66,1.17.94.94,0,0,0,1.17.66l4-1.11-1,2.74-5.47,1.53a.95.95,0,1,0,.51,1.83l4.12-1.15-1.52,4a.95.95,0,0,0,1.77.67l1.47-3.86,1.86,3.33a1,1,0,0,0,.83.48.95.95,0,0,0,.83-1.41l-2.63-4.72,1.06-2.79,1.93,3.45a.94.94,0,0,0,.83.49.95.95,0,0,0,.83-1.41l-2.7-4.84,3.65-9.58,3.65,9.58-2.7,4.84a.95.95,0,1,0,1.66.92l1.93-3.45,1.06,2.79-2.63,4.72a1,1,0,0,0,1.66.93l1.85-3.33,1.47,3.86a.94.94,0,0,0,.89.61.84.84,0,0,0,.34-.07.94.94,0,0,0,.55-1.22l-1.52-4,4.11,1.15a.95.95,0,1,0,.51-1.83l-5.47-1.53-1-2.74,4,1.11a.94.94,0,0,0,1.17-.66,1,1,0,0,0-.66-1.17l-5.34-1.49L564.78,93.7l10.07,3.84,1.49,5.33a.95.95,0,1,0,1.83-.51l-1.12-4,2.74,1,1.53,5.46a1,1,0,0,0,.91.7,1,1,0,0,0,.26,0,1,1,0,0,0,.66-1.17L582,100.26l4,1.52a1.06,1.06,0,0,0,.34.06.95.95,0,0,0,.34-1.83Z"/><path class="cls-2" d="M940.67,170.31l-6.95-2.65,6-3.35a1.71,1.71,0,0,0-1.67-3l-8.5,4.75-5-1.92,6.23-3.47a1.71,1.71,0,1,0-1.67-3l-8.72,4.87L903.07,156l17.28-6.58,8.72,4.87a1.65,1.65,0,0,0,.83.22,1.71,1.71,0,0,0,.83-3.21l-6.23-3.47,5-1.91,8.5,4.74a1.69,1.69,0,0,0,.83.22,1.71,1.71,0,0,0,.84-3.2l-6-3.34,6.95-2.65a1.71,1.71,0,0,0-1.22-3.2l-7.2,2.75,2.08-7.42a1.71,1.71,0,1,0-3.29-.92l-2.76,9.86-4.94,1.88,2-7.18a1.71,1.71,0,1,0-3.29-.92l-2.69,9.62L901.22,153l6.91-18.15,9.62-2.69a1.71,1.71,0,1,0-.92-3.29l-7.18,2,1.88-4.94,9.86-2.76a1.71,1.71,0,0,0-.92-3.29L913,122l2.74-7.2a1.71,1.71,0,1,0-3.19-1.22l-2.65,7-3.35-6a1.71,1.71,0,0,0-3,1.67l4.74,8.5-1.92,5L903,123.52a1.71,1.71,0,0,0-3,1.67l4.87,8.72-6.58,17.28-6.58-17.28,4.87-8.72a1.71,1.71,0,1,0-3-1.67l-3.48,6.23-1.92-5,4.74-8.5a1.71,1.71,0,0,0-3-1.67l-3.35,6-2.65-7a1.71,1.71,0,1,0-3.19,1.22l2.74,7.2-7.42-2.08a1.71,1.71,0,1,0-.92,3.29L885,126l1.88,4.94-7.18-2a1.71,1.71,0,0,0-.92,3.29l9.62,2.69L895.32,153l-18.15-6.92-2.69-9.62a1.71,1.71,0,1,0-3.29.92l2,7.18-4.94-1.88-2.76-9.86a1.71,1.71,0,1,0-3.29.92l2.08,7.42-7.19-2.75a1.71,1.71,0,1,0-1.22,3.2l6.95,2.65-6,3.34a1.71,1.71,0,0,0,.84,3.2,1.69,1.69,0,0,0,.83-.22l8.5-4.74,5,1.91-6.23,3.47a1.71,1.71,0,0,0,.84,3.21,1.65,1.65,0,0,0,.83-.22l8.72-4.87L893.47,156l-17.28,6.58-8.72-4.87a1.71,1.71,0,0,0-1.67,3l6.23,3.47-5,1.92-8.5-4.75a1.71,1.71,0,1,0-1.67,3l6,3.35-6.95,2.65a1.71,1.71,0,0,0,1.22,3.2l7.19-2.74-2.08,7.42a1.71,1.71,0,0,0,3.29.92l2.76-9.86,4.94-1.88-2,7.18a1.72,1.72,0,0,0,1.18,2.11,2,2,0,0,0,.46.06,1.71,1.71,0,0,0,1.65-1.25l2.69-9.62,18.15-6.91-6.92,18.14-9.62,2.7a1.71,1.71,0,0,0,.92,3.29l7.18-2L885,186l-9.85,2.76a1.71,1.71,0,1,0,.92,3.29l7.42-2.08-2.74,7.2a1.71,1.71,0,1,0,3.19,1.22l2.65-7,3.35,6a1.71,1.71,0,0,0,1.49.88,1.75,1.75,0,0,0,.84-.22,1.72,1.72,0,0,0,.66-2.33l-4.74-8.5,1.92-5,3.48,6.23a1.71,1.71,0,1,0,3-1.67l-4.87-8.72,6.58-17.27,6.58,17.27L900,186.79a1.72,1.72,0,0,0,.66,2.33,1.7,1.7,0,0,0,.84.22,1.72,1.72,0,0,0,1.49-.87l3.47-6.23,1.92,5-4.74,8.5a1.72,1.72,0,0,0,.66,2.33,1.76,1.76,0,0,0,.84.22,1.71,1.71,0,0,0,1.49-.88l3.35-6,2.65,7a1.71,1.71,0,0,0,1.6,1.1,1.81,1.81,0,0,0,.61-.11,1.71,1.71,0,0,0,1-2.21L913,190l7.42,2.08a1.71,1.71,0,0,0,.92-3.29L911.53,186l-1.88-4.94,7.18,2a1.69,1.69,0,0,0,2.11-1.19,1.71,1.71,0,0,0-1.19-2.11l-9.62-2.7-6.91-18.14,18.15,6.91,2.69,9.62a1.71,1.71,0,0,0,1.65,1.25,2,2,0,0,0,.46-.06,1.72,1.72,0,0,0,1.18-2.11l-2-7.18,4.94,1.88,2.76,9.86a1.71,1.71,0,0,0,1.65,1.25,1.76,1.76,0,0,0,.46-.06,1.72,1.72,0,0,0,1.18-2.11l-2.08-7.42,7.2,2.74a1.68,1.68,0,0,0,.61.11,1.71,1.71,0,0,0,.61-3.31Z"/><path class="cls-1" d="M1285,262.52a4.16,4.16,0,1,1,4.16,4.16A4.16,4.16,0,0,1,1285,262.52Z"/><path class="cls-1" d="M1340.46,231.18a8.34,8.34,0,1,1,8.33,8.34A8.34,8.34,0,0,1,1340.46,231.18Z"/><path class="cls-1" d="M1514.74,251.52a4.49,4.49,0,1,1,4.49,4.49A4.49,4.49,0,0,1,1514.74,251.52Z"/><ellipse class="cls-1" cx="1300.29" cy="242.12" rx="6.35" ry="6.34"/><circle class="cls-1" cx="1646.49" cy="125.3" r="7.17"/><path class="cls-1" d="M2152.28,158a4.93,4.93,0,1,1,4.92,4.93A4.93,4.93,0,0,1,2152.28,158Z"/><path class="cls-1" d="M1425.61,253a8.34,8.34,0,1,1,8.34,8.33A8.34,8.34,0,0,1,1425.61,253Z"/><path class="cls-1" d="M2122.94,253.26a7.33,7.33,0,1,1,7.33,7.33A7.34,7.34,0,0,1,2122.94,253.26Z"/><path class="cls-1" d="M2313.82,102.41a7.54,7.54,0,1,1,7.53,7.54A7.54,7.54,0,0,1,2313.82,102.41Z"/><circle class="cls-1" cx="1257.21" cy="52.22" r="5.39"/><path class="cls-1" d="M2023,33.6a4.75,4.75,0,1,1,4.75,4.75A4.75,4.75,0,0,1,2023,33.6Z"/><circle class="cls-1" cx="2173.31" cy="46.19" r="8.11"/><circle class="cls-1" cx="2373.33" cy="41.96" r="3.98"/><circle class="cls-1" cx="2460.48" cy="68.8" r="8.33"/><path class="cls-1" d="M2458.8,227.9a3.49,3.49,0,1,1,3.48,3.5A3.49,3.49,0,0,1,2458.8,227.9Z"/><path class="cls-1" d="M2520.52,267.77a6.27,6.27,0,1,1,6.27,6.26A6.27,6.27,0,0,1,2520.52,267.77Z"/><path class="cls-1" d="M1647,191.08a4.55,4.55,0,1,1,4.55,4.55A4.55,4.55,0,0,1,1647,191.08Z"/><path class="cls-1" d="M2045.17,238.34a3.66,3.66,0,1,1,3.66,3.66A3.65,3.65,0,0,1,2045.17,238.34Z"/><path class="cls-1" d="M2169.53,248.09a5.78,5.78,0,1,1,5.78,5.79A5.77,5.77,0,0,1,2169.53,248.09Z"/><path class="cls-1" d="M1267.23,135.5a3,3,0,1,1,3,3A3,3,0,0,1,1267.23,135.5Z"/><ellipse class="cls-1" cx="2475.85" cy="140.28" rx="4.07" ry="4.05"/><ellipse class="cls-1" cx="2415.55" cy="97.08" rx="6.27" ry="6.28"/><path class="cls-1" d="M2535.75,142.41a2.86,2.86,0,1,1-2.85-2.85A2.86,2.86,0,0,1,2535.75,142.41Z"/><path class="cls-1" d="M2444.87,94.65a3.86,3.86,0,1,1-3.86-3.88A3.86,3.86,0,0,1,2444.87,94.65Z"/><path class="cls-1" d="M2540.18,173.13a4.44,4.44,0,1,1-4.44-4.43A4.44,4.44,0,0,1,2540.18,173.13Z"/><path class="cls-1" d="M2416.07,207.19a3.23,3.23,0,1,1-3.23-3.22A3.23,3.23,0,0,1,2416.07,207.19Z"/><path class="cls-1" d="M2396.25,137a5.24,5.24,0,1,1-5.25-5.24A5.24,5.24,0,0,1,2396.25,137Z"/><circle class="cls-1" cx="2321.38" cy="248.35" r="6.36"/><path class="cls-1" d="M2307.45,176.07a5.33,5.33,0,1,1-5.33-5.33A5.33,5.33,0,0,1,2307.45,176.07Z"/><path class="cls-1" d="M2450.65,170.8a5.68,5.68,0,1,1-5.67-5.68A5.67,5.67,0,0,1,2450.65,170.8Z"/><path class="cls-1" d="M1253.24,175.63a6.29,6.29,0,1,1-6.29-6.29A6.3,6.3,0,0,1,1253.24,175.63Z"/><circle class="cls-1" cx="2542.12" cy="36.86" r="5.54"/><path class="cls-1" d="M2513.09,63.14a6.56,6.56,0,1,1-6.57-6.56A6.56,6.56,0,0,1,2513.09,63.14Z"/><ellipse class="cls-1" cx="2418.97" cy="116.07" rx="5.03" ry="5.04"/><path class="cls-1" d="M2337.11,74.25a3.47,3.47,0,1,1-3.48-3.46A3.47,3.47,0,0,1,2337.11,74.25Z"/><ellipse class="cls-1" cx="2381.92" cy="262.56" rx="5.92" ry="5.91"/><path class="cls-1" d="M2317.27,70.57a3.59,3.59,0,1,1-3.58-3.6A3.58,3.58,0,0,1,2317.27,70.57Z"/><path class="cls-1" d="M2195,127.1a2.36,2.36,0,1,1-2.36-2.37A2.36,2.36,0,0,1,2195,127.1Z"/><path class="cls-1" d="M2006.86,101.22a6,6,0,1,1-6-6A6,6,0,0,1,2006.86,101.22Z"/><circle class="cls-1" cx="1952.45" cy="189.07" r="4.93"/><ellipse class="cls-1" cx="2197.08" cy="254.95" rx="4.09" ry="4.09"/><path class="cls-1" d="M2247.62,27.93a2.21,2.21,0,1,1-2.21-2.21A2.21,2.21,0,0,1,2247.62,27.93Z"/><path class="cls-1" d="M2139.46,41.19a5.23,5.23,0,1,1-5.22-5.23A5.23,5.23,0,0,1,2139.46,41.19Z"/><circle class="cls-1" cx="1984.96" cy="58.07" r="4.01"/><path class="cls-1" d="M1940.22,62.47a2.14,2.14,0,1,1-2.14-2.15A2.14,2.14,0,0,1,1940.22,62.47Z"/><ellipse class="cls-1" cx="1875.39" cy="115.67" rx="4.07" ry="4.08"/><path class="cls-1" d="M1760.65,73.09a6.27,6.27,0,1,1-6.27-6.27A6.26,6.26,0,0,1,1760.65,73.09Z"/><circle class="cls-1" cx="1716.66" cy="219.78" r="4.76"/><path class="cls-1" d="M1642.6,166.82a4.75,4.75,0,1,1-4.75-4.76A4.75,4.75,0,0,1,1642.6,166.82Z"/><path class="cls-1" d="M1600.68,97.48a6.5,6.5,0,1,1-6.5-6.51A6.51,6.51,0,0,1,1600.68,97.48Z"/><path class="cls-1" d="M1450.21,191.1a4.95,4.95,0,1,1-4.95-4.95A4.94,4.94,0,0,1,1450.21,191.1Z"/><path class="cls-1" d="M1375,199.74a6,6,0,1,1-6-6A6,6,0,0,1,1375,199.74Z"/><path class="cls-1" d="M1331.62,245.18a3.36,3.36,0,1,1-3.36-3.36A3.35,3.35,0,0,1,1331.62,245.18Z"/><ellipse class="cls-1" cx="1215.09" cy="187.35" rx="6.31" ry="6.3"/><path class="cls-1" d="M1414.9,203.37a2.75,2.75,0,1,1-2.74-2.75A2.75,2.75,0,0,1,1414.9,203.37Z"/><path class="cls-1" d="M1638.76,111.05a5.84,5.84,0,1,1-5.83-5.84A5.84,5.84,0,0,1,1638.76,111.05Z"/><path class="cls-1" d="M1701.77,173.37a6.56,6.56,0,1,1-6.57-6.57A6.57,6.57,0,0,1,1701.77,173.37Z"/><path class="cls-1" d="M1700.18,119.45a6.43,6.43,0,1,1-6.42-6.43A6.42,6.42,0,0,1,1700.18,119.45Z"/><path class="cls-1" d="M1556.49,115.18a5.43,5.43,0,1,1-5.43-5.44A5.43,5.43,0,0,1,1556.49,115.18Z"/><path class="cls-1" d="M1472.48,62.71a6.72,6.72,0,1,1-6.72-6.71A6.72,6.72,0,0,1,1472.48,62.71Z"/><path class="cls-1" d="M1447.09,247.88a3.27,3.27,0,1,1-3.27-3.27A3.27,3.27,0,0,1,1447.09,247.88Z"/><path class="cls-2" d="M1753.76,144.27l-1-.39h0l.54-.37a.55.55,0,1,0-.62-.91l-1.14.78-1.28-.51h0l1.54-1a.55.55,0,1,0-.62-.91l-2.16,1.46-1.5-.63,2.66-1.8a.55.55,0,0,0-.62-.91l-3.28,2.23-1.61-.64,3.84-2.47a.52.52,0,0,0,.24-.46.58.58,0,0,0-.24-.46l-3.84-2.45,1.59-.66,3.31,2.24a.52.52,0,0,0,.31.1.55.55,0,0,0,.31-1l-2.67-1.81h0L1749,133l2.16,1.46a.56.56,0,0,0,.31.09.55.55,0,0,0,.46-.24.55.55,0,0,0-.15-.77l-1.53-1,1.27-.51h0l1.14.77a.57.57,0,0,0,.31.09.54.54,0,0,0,.45-.24.55.55,0,0,0-.15-.77l-.53-.36h0l1-.4a.56.56,0,0,0,.31-.73.54.54,0,0,0-.71-.31l-1.21.48h0l.17-1a.55.55,0,0,0-.45-.64.56.56,0,0,0-.64.45l-.29,1.66h0l-1.28.51.37-2.15a.55.55,0,0,0-.45-.64.56.56,0,0,0-.64.45l-.48,2.82h0l-1.25.51.5-3a.55.55,0,0,0-.45-.64.56.56,0,0,0-.63.45L1746,133l-1.51.61.83-4.63a.63.63,0,0,0-.15-.48.51.51,0,0,0-.48-.16l-4.65.84.62-1.52h0l3.64-.62a.55.55,0,0,0,.45-.63.56.56,0,0,0-.63-.45l-3,.51h0l.51-1.25h0l2.83-.48a.55.55,0,0,0,.45-.63.56.56,0,0,0-.63-.45l-2.16.37h0l.51-1.27,1.67-.28a.55.55,0,0,0-.18-1.09l-1,.17v0l.49-1.19a.57.57,0,0,0-.31-.73.55.55,0,0,0-.71.31l-.42,1h0l-.35-.52a.55.55,0,0,0-.91.62l.78,1.16h0l-.5,1.26v0h0l-1-1.55a.55.55,0,1,0-.91.62l1.46,2.15h0l-.62,1.5h0l-1.81-2.66a.55.55,0,1,0-.91.62l2.24,3.3h0l-.64,1.58-2.47-3.81a.58.58,0,0,0-.93,0l-2.47,3.81-.64-1.58h0l2.24-3.3a.55.55,0,1,0-.91-.62l-1.81,2.66h0l-.62-1.5h0l1.46-2.15a.55.55,0,1,0-.91-.62l-1,1.55h0v0l-.51-1.26h0l.78-1.16a.54.54,0,0,0-.15-.76.55.55,0,0,0-.76.14l-.35.52h0l-.42-1a.55.55,0,0,0-.71-.31.57.57,0,0,0-.31.73l.48,1.19v0l-1-.17a.56.56,0,0,0-.64.45.55.55,0,0,0,.45.64l1.67.28.5,1.27h0l-2.16-.37a.56.56,0,0,0-.64.45.55.55,0,0,0,.45.63l2.83.48h0l.51,1.25h0l-3-.51a.56.56,0,0,0-.63.45.54.54,0,0,0,.45.63l3.64.62h0l.62,1.52-4.65-.84a.51.51,0,0,0-.48.16.63.63,0,0,0-.15.48l.84,4.63L1726,133l-.62-3.64a.55.55,0,0,0-1.09.19l.5,3-1.25-.51h0l-.48-2.82a.55.55,0,0,0-1.09.19l.37,2.15-1.28-.51h0l-.28-1.66a.55.55,0,1,0-1.09.18l.17,1h0l-1.21-.48a.54.54,0,0,0-.71.31.56.56,0,0,0,.31.73l1,.4h0l-.53.36a.55.55,0,0,0-.15.77.54.54,0,0,0,.45.24.57.57,0,0,0,.31-.09l1.13-.77h0l1.27.51-1.53,1a.55.55,0,0,0,.62.91L1723,133l1.51.61h0l-2.67,1.81a.55.55,0,0,0,.31,1,.53.53,0,0,0,.31-.1l3.31-2.24,1.59.66-3.83,2.45a.58.58,0,0,0-.24.46.52.52,0,0,0,.24.46l3.83,2.47-1.61.64-3.28-2.23a.55.55,0,0,0-.62.91l2.66,1.8-1.5.63-2.16-1.46a.55.55,0,1,0-.62.91l1.53,1h0l-1.28.51-1.14-.78a.55.55,0,1,0-.62.91l.54.37h0l-1,.39a.55.55,0,0,0-.31.71.53.53,0,0,0,.71.31l1.22-.48-.17,1a.55.55,0,0,0,.45.64h.09a.55.55,0,0,0,.54-.45l.28-1.67h0l1.28-.51h0L1722,146a.55.55,0,0,0,.45.64h.09a.55.55,0,0,0,.54-.46l.48-2.83h0l1.25-.51h0l-.5,3a.55.55,0,0,0,.45.64h.09a.55.55,0,0,0,.54-.46l.62-3.65,1.53-.61-.86,4.65a.63.63,0,0,0,.15.48.56.56,0,0,0,.48.15l4.63-.84-.59,1.52-3.64.62a.55.55,0,0,0,.19,1.09l3-.5-.5,1.26-2.83.48a.55.55,0,1,0,.18,1.09l2.16-.37-.5,1.27h0l-1.66.28a.55.55,0,0,0,.19,1.09l1-.17h0l-.48,1.21a.53.53,0,0,0,.31.7.32.32,0,0,0,.2,0,.56.56,0,0,0,.5-.33l.42-1,.36.53a.55.55,0,0,0,.91-.62l-.78-1.15.53-1.25,1,1.52a.55.55,0,0,0,.45.24.52.52,0,0,0,.31-.1.55.55,0,0,0,.15-.77l-1.45-2.15h0l.61-1.51,1.81,2.67a.55.55,0,0,0,.46.24.56.56,0,0,0,.31-.1.55.55,0,0,0,.15-.77l-2.23-3.3.64-1.58,2.47,3.81a.58.58,0,0,0,.46.24.58.58,0,0,0,.47-.24l2.47-3.81.64,1.58-2.24,3.3a.55.55,0,0,0,.15.77.57.57,0,0,0,.31.1.54.54,0,0,0,.45-.24l1.81-2.67.61,1.51h0l-1.45,2.15a.55.55,0,0,0,.15.77.52.52,0,0,0,.31.1.56.56,0,0,0,.46-.24l1-1.52.53,1.25-.78,1.15a.55.55,0,1,0,.91.62l.36-.53.42,1a.56.56,0,0,0,.51.33.31.31,0,0,0,.2,0,.54.54,0,0,0,.31-.7l-.49-1.21h0l1,.17a.54.54,0,0,0,.63-.45.55.55,0,0,0-.45-.64l-1.67-.28h0l-.51-1.27,2.16.37a.54.54,0,0,0,.63-.45.55.55,0,0,0-.45-.64l-2.83-.48-.5-1.26,3,.5a.55.55,0,1,0,.18-1.09l-3.64-.62-.59-1.52,4.63.84a.55.55,0,0,0,.48-.15.63.63,0,0,0,.15-.48l-.86-4.65,1.53.61.62,3.65a.55.55,0,0,0,.54.46h.09a.55.55,0,0,0,.45-.64l-.5-3h0l1.25.51h0l.48,2.83a.55.55,0,0,0,.54.46h.09a.55.55,0,0,0,.45-.64l-.37-2.17h0l1.28.51h0l.29,1.67a.55.55,0,0,0,.54.45h.1a.55.55,0,0,0,.45-.64l-.17-1,1.22.48a.54.54,0,1,0,.4-1Zm-10.35-9,3.75,2.4-3.75,2.42-3-1.19.4-1a.62.62,0,0,0,0-.4l-.4-1,3-1.19Zm-3.73,2.4-.31.81-.4,1-.31.82-.82.31-1,.4-.82.31-.81-.31-1-.4-.82-.31-.31-.82-.4-1-.31-.81.31-.82.4-1,.31-.82.82-.31,1-.4.81-.31.82.31,1,.4.82.31.31.82.4,1Zm4.41-8.09-.82,4.54-3.26,1.3-.39-1a.51.51,0,0,0-.33-.31l-1-.4,1.32-3.28Zm-8.09-3.06,2.43,3.74-1.19,3-1-.4a.63.63,0,0,0-.4,0l-1,.4-1.19-3Zm-8.08,3.06,4.52.81,1.32,3.28-1,.4a.51.51,0,0,0-.33.31l-.39,1-3.26-1.3Zm-3.06,8.09,3.75-2.4,0,0,3,1.19-.39,1a.59.59,0,0,0,0,.4l.39,1-3,1.19Zm3.06,8.08.82-4.54,3.26-1.3.39,1.06a.57.57,0,0,0,.33.31l1,.39-1.3,3.26Zm8.08,3.07-2.42-3.75,1.21-3,1,.4a.48.48,0,0,0,.4,0l1-.4,1.21,3Zm8.09-3.07-4.54-.81-1.3-3.26,1-.39a.57.57,0,0,0,.33-.31l.39-1.06,3.26,1.3Z"/><path class="cls-2" d="M1460.2,115.34l-2.45-1h0l1.3-.88a1.33,1.33,0,0,0-1.49-2.21l-2.77,1.88-3.09-1.22h0l3.71-2.51a1.33,1.33,0,0,0-1.49-2.21l-5.22,3.54-3.62-1.53,6.43-4.35a1.33,1.33,0,0,0-1.49-2.21l-7.94,5.39-3.89-1.54,9.27-6a1.24,1.24,0,0,0,.58-1.12,1.38,1.38,0,0,0-.58-1.11l-9.27-5.91,3.84-1.6,8,5.43a1.37,1.37,0,0,0,.75.22,1.33,1.33,0,0,0,.75-2.44L1445,89.63h0l3.66-1.48,5.21,3.53a1.33,1.33,0,0,0,1.49-2.21l-3.69-2.5,3.08-1.22h0l2.75,1.87a1.37,1.37,0,0,0,.75.22,1.33,1.33,0,0,0,.75-2.43l-1.29-.87h0l2.45-1a1.36,1.36,0,0,0,.75-1.76,1.32,1.32,0,0,0-1.71-.75l-2.92,1.17h0l.41-2.4a1.33,1.33,0,0,0-1.09-1.54,1.36,1.36,0,0,0-1.54,1.09l-.68,4h0l-3.09,1.23.89-5.2a1.33,1.33,0,1,0-2.63-.45l-1.16,6.81h0l-3,1.22,1.21-7.15a1.33,1.33,0,1,0-2.62-.44l-1.49,8.77-3.66,1.48,2-11.18a1.55,1.55,0,0,0-.37-1.17,1.24,1.24,0,0,0-1.18-.38L1427,79l1.49-3.67h0l8.79-1.49a1.33,1.33,0,0,0-.44-2.63l-7.18,1.22v0l1.22-3h0l6.83-1.17a1.33,1.33,0,0,0,1.09-1.53,1.35,1.35,0,0,0-1.54-1.09l-5.22.89v0l1.22-3.08,4-.69a1.33,1.33,0,1,0-.45-2.62l-2.43.41v0l1.18-2.88a1.36,1.36,0,0,0-.75-1.76,1.31,1.31,0,0,0-1.7.75l-1,2.45h0l-.86-1.26a1.33,1.33,0,1,0-2.2,1.49L1431,62h0l-1.22,3v.05h0l-2.53-3.74a1.33,1.33,0,1,0-2.21,1.49l3.52,5.21v0l-1.49,3.63h0l-4.37-6.44a1.33,1.33,0,0,0-2.21,1.49l5.41,8h0l-1.55,3.83-6-9.21a1.4,1.4,0,0,0-2.24,0l-6,9.21-1.54-3.83h0l5.41-8a1.33,1.33,0,1,0-2.2-1.49l-4.37,6.44h0L1406,68.06v0l3.53-5.21a1.33,1.33,0,1,0-2.21-1.49l-2.53,3.74h0V65l-1.22-3h0l1.89-2.79a1.33,1.33,0,0,0-2.21-1.49l-.85,1.26h0l-1-2.45a1.31,1.31,0,0,0-1.7-.75,1.35,1.35,0,0,0-.74,1.76l1.17,2.88,0,0-2.43-.41a1.35,1.35,0,0,0-1.54,1.09,1.34,1.34,0,0,0,1.09,1.54l4,.69,1.22,3.08v0l-5.23-.89a1.35,1.35,0,0,0-1.54,1.09,1.33,1.33,0,0,0,1.09,1.53l6.83,1.17h0l1.22,3v0l-7.18-1.22a1.35,1.35,0,0,0-1.54,1.09,1.34,1.34,0,0,0,1.09,1.54l8.79,1.49h0l1.49,3.67-11.23-2a1.24,1.24,0,0,0-1.17.38,1.55,1.55,0,0,0-.37,1.17l2,11.18-3.65-1.48-1.49-8.77a1.33,1.33,0,0,0-2.63.44l1.21,7.15-3-1.22h0L1386,79a1.33,1.33,0,1,0-2.63.45l.89,5.2-3.09-1.23h0l-.68-4a1.33,1.33,0,0,0-2.63.44l.41,2.4h0l-2.93-1.17a1.32,1.32,0,0,0-1.71.75,1.36,1.36,0,0,0,.75,1.76l2.45,1h0l-1.29.87a1.33,1.33,0,0,0,.75,2.43,1.38,1.38,0,0,0,.75-.22l2.75-1.87h0l3.08,1.22-3.69,2.5a1.33,1.33,0,1,0,1.49,2.21l5.21-3.53,3.66,1.48h0L1383.1,94a1.33,1.33,0,0,0,.75,2.44,1.37,1.37,0,0,0,.75-.22l8-5.43,3.84,1.6-9.27,5.91a1.38,1.38,0,0,0-.59,1.11,1.25,1.25,0,0,0,.59,1.12l9.27,6-3.89,1.54-7.94-5.39a1.33,1.33,0,1,0-1.49,2.21l6.43,4.35-3.62,1.53-5.22-3.54a1.33,1.33,0,1,0-1.49,2.21l3.71,2.51h0l-3.09,1.22-2.76-1.88a1.33,1.33,0,0,0-1.49,2.21l1.3.88h0l-2.45,1a1.32,1.32,0,0,0-.75,1.71,1.27,1.27,0,0,0,1.71.74l2.95-1.16-.42,2.42a1.33,1.33,0,0,0,1.09,1.54l.23,0a1.34,1.34,0,0,0,1.31-1.11l.69-4h0l3.09-1.22h0l-.89,5.23a1.33,1.33,0,0,0,1.09,1.54l.22,0a1.34,1.34,0,0,0,1.32-1.11l1.16-6.84h0l3-1.22h0L1389,119a1.33,1.33,0,0,0,1.09,1.54l.22,0a1.34,1.34,0,0,0,1.32-1.11l1.49-8.82,3.7-1.48-2.08,11.23a1.54,1.54,0,0,0,.37,1.17,1.37,1.37,0,0,0,1.17.37l11.18-2-1.43,3.66-8.8,1.49a1.33,1.33,0,0,0,.45,2.63l7.16-1.22-1.21,3.06-6.84,1.16a1.33,1.33,0,0,0,.44,2.63l5.21-.89-1.22,3.07v0l-4,.68a1.33,1.33,0,1,0,.45,2.63l2.4-.41h0l-1.17,2.93a1.3,1.3,0,0,0,.74,1.7.81.81,0,0,0,.48.1,1.34,1.34,0,0,0,1.22-.79l1-2.49.87,1.28a1.35,1.35,0,0,0,1.11.58,1.3,1.3,0,0,0,.75-.23,1.34,1.34,0,0,0,.36-1.85l-1.89-2.78,1.27-3,2.48,3.67a1.31,1.31,0,0,0,1.1.58,1.26,1.26,0,0,0,.75-.23,1.33,1.33,0,0,0,.36-1.85l-3.52-5.2h0l1.49-3.66,4.38,6.45a1.31,1.31,0,0,0,1.1.59,1.33,1.33,0,0,0,1.1-2.08l-5.4-8,1.54-3.83,6,9.22a1.37,1.37,0,0,0,2.24,0l6-9.22,1.55,3.83-5.41,8a1.33,1.33,0,0,0,1.11,2.08,1.31,1.31,0,0,0,1.1-.59l4.38-6.45,1.48,3.66h0l-3.52,5.2a1.33,1.33,0,0,0,.35,1.85,1.29,1.29,0,0,0,.75.23,1.32,1.32,0,0,0,1.1-.58l2.48-3.67,1.28,3-1.89,2.78a1.34,1.34,0,0,0,.35,1.85,1.3,1.3,0,0,0,.75.23,1.33,1.33,0,0,0,1.1-.58l.87-1.28,1,2.49a1.33,1.33,0,0,0,1.22.79.79.79,0,0,0,.48-.1,1.3,1.3,0,0,0,.75-1.7l-1.18-2.93h0l2.41.41a1.31,1.31,0,0,0,1.54-1.09,1.34,1.34,0,0,0-1.09-1.54l-4-.68v0l-1.22-3.07,5.21.89a1.33,1.33,0,1,0,.45-2.63l-6.84-1.16-1.21-3.06,7.16,1.22a1.33,1.33,0,0,0,.44-2.63l-8.79-1.49-1.43-3.66,11.17,2a1.38,1.38,0,0,0,1.18-.37,1.54,1.54,0,0,0,.37-1.17l-2.08-11.23,3.7,1.48,1.5,8.82a1.33,1.33,0,0,0,1.31,1.11l.22,0a1.34,1.34,0,0,0,1.09-1.54l-1.22-7.19h0l3,1.22h0l1.16,6.84a1.33,1.33,0,0,0,1.31,1.11l.23,0a1.34,1.34,0,0,0,1.09-1.54l-.89-5.23h0l3.09,1.22h0l.69,4a1.34,1.34,0,0,0,1.32,1.11l.22,0a1.33,1.33,0,0,0,1.09-1.54l-.41-2.42,2.95,1.16a1.32,1.32,0,1,0,1-2.45Zm-25-21.72,9.05,5.8-9.05,5.86-7.29-2.88,1-2.5a1.48,1.48,0,0,0,0-1l-1-2.51,7.24-2.88Zm-9,5.8-.75,2-1,2.5-.74,2-2,.75-2.5,1-2,.75-2-.75-2.5-1-2-.75-.75-2-1-2.5-.75-2,.75-2,1-2.5.75-2,2-.75,2.5-1,2-.75,2,.75,2.5,1,2,.75.74,2,1,2.5Zm10.65-19.54-2,11L1427,94l-1-2.51a1.27,1.27,0,0,0-.8-.74l-2.5-1,3.2-7.93Zm-19.54-7.4,5.86,9.05-2.88,7.29-2.5-1a1.49,1.49,0,0,0-1,0l-2.51,1-2.87-7.29Zm-19.54,7.4,10.91,2,3.2,7.93-2.51,1a1.25,1.25,0,0,0-.79.74l-1,2.51-7.88-3.14Zm-7.41,19.54,9.06-5.8.05-.05,7.24,2.88-1,2.51a1.47,1.47,0,0,0,0,1l1,2.5-7.29,2.88Zm7.41,19.54,2-11,7.88-3.14,1,2.55a1.37,1.37,0,0,0,.79.75l2.51,1-3.14,7.88Zm19.54,7.4-5.86-9.05,2.93-7.3,2.45,1a1.14,1.14,0,0,0,1,0l2.45-1,2.93,7.3Zm19.54-7.4-11-2-3.14-7.88,2.5-1a1.4,1.4,0,0,0,.8-.75l1-2.55,7.88,3.14Z"/><path class="cls-2" d="M2092.46,181.48l-3.21-1.22,2.77-1.55a.79.79,0,0,0-.77-1.38l-3.93,2.19-2.33-.89,2.88-1.61a.79.79,0,1,0-.77-1.38l-4,2.25-8-3,8-3,4,2.25a.8.8,0,0,0,.39.11.81.81,0,0,0,.69-.41.79.79,0,0,0-.3-1.08l-2.88-1.61,2.33-.88,3.93,2.19a.75.75,0,0,0,.39.1A.79.79,0,0,0,2092,171l-2.77-1.55,3.21-1.22a.79.79,0,0,0-.56-1.48l-3.33,1.27,1-3.43a.79.79,0,1,0-1.52-.43l-1.28,4.55-2.28.87.93-3.32a.79.79,0,1,0-1.52-.43l-1.25,4.45-8.39,3.2,3.2-8.39,4.45-1.24a.79.79,0,0,0-.43-1.52l-3.32.93L2079,161l4.56-1.27a.79.79,0,0,0,.55-1,.78.78,0,0,0-1-.55l-3.43,1,1.27-3.33a.79.79,0,0,0-1.48-.56l-1.22,3.21-1.55-2.77a.79.79,0,0,0-1.38.78l2.19,3.93-.88,2.33-1.61-2.88a.79.79,0,1,0-1.38.78l2.25,4-3,8-3-8,2.25-4a.79.79,0,1,0-1.38-.78l-1.61,2.88-.88-2.33,2.19-3.93a.79.79,0,0,0-1.38-.78l-1.55,2.77-1.22-3.21a.79.79,0,0,0-1.48.56l1.27,3.33-3.43-1a.79.79,0,1,0-.43,1.52l4.56,1.27.87,2.28-3.32-.93a.79.79,0,0,0-.43,1.52l4.45,1.24,3.2,8.39-8.39-3.2-1.25-4.45a.78.78,0,0,0-1-.55.8.8,0,0,0-.55,1l.93,3.32-2.28-.87-1.28-4.55a.79.79,0,1,0-1.52.43l1,3.43-3.33-1.27a.79.79,0,1,0-.56,1.48l3.21,1.22L2053.7,171a.79.79,0,0,0,.39,1.48.75.75,0,0,0,.39-.1l3.93-2.19,2.33.88-2.88,1.61a.79.79,0,0,0-.31,1.08.81.81,0,0,0,.69.41.8.8,0,0,0,.39-.11l4-2.25,8,3-8,3-4-2.25a.79.79,0,1,0-.77,1.38l2.88,1.61-2.33.89-3.93-2.19a.79.79,0,1,0-.77,1.38l2.77,1.55-3.21,1.22a.79.79,0,0,0,.28,1.53.81.81,0,0,0,.28-.05l3.33-1.27-1,3.43a.79.79,0,0,0,.55,1l.22,0a.79.79,0,0,0,.76-.57L2059,181l2.28-.87-.93,3.32a.8.8,0,0,0,.55,1l.21,0a.79.79,0,0,0,.76-.58l1.25-4.44,8.39-3.2-3.2,8.39-4.45,1.25a.79.79,0,0,0,.43,1.52l3.32-.93-.87,2.29-4.56,1.27a.79.79,0,1,0,.43,1.52l3.43-1-1.27,3.33a.79.79,0,0,0,1.48.56l1.22-3.21L2069,194a.79.79,0,1,0,1.38-.77l-2.19-3.93.88-2.33,1.61,2.88a.79.79,0,0,0,.69.4.74.74,0,0,0,.39-.1.79.79,0,0,0,.31-1.08l-2.25-4,3-8,3,8-2.25,4a.79.79,0,0,0,.3,1.08.76.76,0,0,0,.39.1.79.79,0,0,0,.69-.4l1.61-2.88.88,2.33-2.19,3.93a.8.8,0,0,0,.3,1.08.79.79,0,0,0,1.08-.31l1.55-2.77,1.22,3.21a.79.79,0,0,0,.74.51.72.72,0,0,0,.28-.05.78.78,0,0,0,.46-1l-1.27-3.33,3.43,1a.78.78,0,0,0,1-.55.79.79,0,0,0-.55-1l-4.56-1.27-.87-2.29,3.32.93a.78.78,0,0,0,1-.55.79.79,0,0,0-.55-1l-4.45-1.25-3.2-8.39,8.39,3.2,1.25,4.44a.79.79,0,0,0,.76.58l.21,0a.79.79,0,0,0,.55-1l-.93-3.32,2.28.87,1.28,4.55a.79.79,0,0,0,.76.57l.22,0a.79.79,0,0,0,.55-1l-1-3.43,3.33,1.27a.82.82,0,0,0,.28.05.79.79,0,0,0,.28-1.53Z"/><path class="cls-2" d="M1949.66,53l-3.85-1.47,3.33-1.86a.95.95,0,0,0-.93-1.66l-4.72,2.63-2.79-1.06,3.45-1.93a1,1,0,0,0,.37-1.29,1,1,0,0,0-1.29-.37l-4.84,2.7-9.58-3.65,9.58-3.66,4.84,2.7a.94.94,0,0,0,.46.12.95.95,0,0,0,.46-1.78l-3.45-1.93,2.79-1.06,4.72,2.63a.94.94,0,0,0,.46.12.95.95,0,0,0,.46-1.78l-3.33-1.86,3.85-1.47a.94.94,0,0,0,.55-1.22,1,1,0,0,0-1.22-.55l-4,1.52,1.16-4.11a.95.95,0,0,0-1.83-.51l-1.53,5.47-2.74,1,1.12-4a.95.95,0,1,0-1.83-.52l-1.49,5.34-10.07,3.84,3.83-10.07,5.34-1.49a1,1,0,0,0,.66-1.17,1,1,0,0,0-1.17-.66l-4,1.12,1-2.74,5.47-1.53a.95.95,0,1,0-.51-1.82l-4.11,1.15,1.52-4a.95.95,0,0,0-1.77-.67l-1.47,3.86-1.85-3.33a.95.95,0,0,0-1.66.93l2.63,4.71-1.06,2.79L1928.75,27a.95.95,0,1,0-1.66.92l2.7,4.84-3.65,9.58-3.65-9.58,2.7-4.84a.95.95,0,1,0-1.66-.92l-1.93,3.45-1.06-2.79,2.63-4.71a.95.95,0,0,0-1.66-.93l-1.86,3.33-1.47-3.86a.95.95,0,0,0-1.77.67l1.52,4-4.12-1.15a.95.95,0,1,0-.51,1.82l5.47,1.53,1,2.74-4-1.12a.95.95,0,1,0-.51,1.83l5.34,1.49,3.83,10.07-10.07-3.84-1.49-5.34a.95.95,0,0,0-1.83.52l1.12,4-2.74-1L1908,32.24a.95.95,0,0,0-1.83.51l1.15,4.11-4-1.52a1,1,0,0,0-1.22.55.94.94,0,0,0,.55,1.22l3.85,1.47-3.33,1.86a.95.95,0,0,0,.93,1.66l4.72-2.63,2.79,1.06-3.45,1.93a.95.95,0,0,0,.46,1.78.94.94,0,0,0,.46-.12l4.84-2.7,9.58,3.66-9.58,3.65-4.84-2.7a.95.95,0,0,0-.93,1.66l3.45,1.93-2.79,1.06L1904.07,48a.95.95,0,1,0-.93,1.66l3.33,1.86L1902.62,53a.95.95,0,0,0,.33,1.83,1.06,1.06,0,0,0,.34-.06l4-1.52-1.15,4.11a1,1,0,0,0,.66,1.17.93.93,0,0,0,.26,0,1,1,0,0,0,.91-.7l1.53-5.46,2.74-1-1.12,4a1,1,0,0,0,.66,1.17,1,1,0,0,0,.26,0,1,1,0,0,0,.91-.69l1.49-5.33,10.07-3.84-3.83,10.07-5.34,1.49a1,1,0,0,0-.66,1.17.94.94,0,0,0,1.17.66l4-1.11-1,2.74-5.47,1.53a.95.95,0,1,0,.51,1.83l4.12-1.15-1.52,4a.95.95,0,0,0,1.77.67l1.47-3.86,1.86,3.33a1,1,0,0,0,.83.48.95.95,0,0,0,.83-1.41l-2.63-4.72,1.06-2.79,1.93,3.45a.94.94,0,0,0,.83.49.95.95,0,0,0,.83-1.41l-2.7-4.84,3.65-9.58,3.65,9.58-2.7,4.84a.95.95,0,1,0,1.66.92l1.93-3.45,1.06,2.79-2.63,4.72a1,1,0,0,0,1.66.93l1.85-3.33,1.47,3.86a.94.94,0,0,0,.89.61.84.84,0,0,0,.34-.07.94.94,0,0,0,.55-1.22l-1.52-4,4.11,1.15a.95.95,0,1,0,.51-1.83l-5.47-1.53-1-2.74,4,1.11a.94.94,0,0,0,1.17-.66,1,1,0,0,0-.66-1.17l-5.34-1.49-3.83-10.07,10.07,3.84,1.49,5.33a.95.95,0,1,0,1.83-.51l-1.12-4,2.74,1,1.53,5.46a1,1,0,0,0,.91.7,1,1,0,0,0,.26,0,1,1,0,0,0,.66-1.17L1945,53.26l4,1.52a1.06,1.06,0,0,0,.34.06.95.95,0,0,0,.34-1.83Z"/><path class="cls-2" d="M1277.15,169.62l-3.16-1.21,2.73-1.53a.78.78,0,1,0-.76-1.35l-3.87,2.16-2.29-.88,2.84-1.58a.78.78,0,1,0-.76-1.36l-4,2.21-7.87-3,7.87-3,4,2.22a.77.77,0,0,0,.38.1.78.78,0,0,0,.38-1.45l-2.84-1.58,2.29-.87,3.87,2.16a.8.8,0,0,0,.38.1.77.77,0,0,0,.68-.4.78.78,0,0,0-.3-1.06l-2.73-1.53,3.16-1.21a.78.78,0,1,0-.56-1.45l-3.28,1.24.95-3.37a.78.78,0,1,0-1.5-.42l-1.26,4.49-2.25.86.91-3.27a.78.78,0,1,0-1.5-.42l-1.22,4.38-8.26,3.15,3.15-8.26,4.38-1.22a.78.78,0,1,0-.42-1.5l-3.27.91.85-2.25,4.49-1.25a.78.78,0,1,0-.42-1.5l-3.38.94,1.25-3.28a.78.78,0,0,0-1.45-.55l-1.21,3.16-1.52-2.73a.78.78,0,0,0-1.36.76l2.16,3.87-.87,2.29-1.58-2.84a.78.78,0,0,0-1.36.76l2.22,4-3,7.87-3-7.87,2.21-4a.78.78,0,0,0-1.36-.76l-1.58,2.84-.87-2.29,2.16-3.87a.78.78,0,0,0-1.36-.76l-1.52,2.73-1.21-3.16a.78.78,0,0,0-1.45.55l1.25,3.28-3.38-.94a.78.78,0,1,0-.42,1.5l4.49,1.25.86,2.25-3.27-.91a.78.78,0,1,0-.42,1.5l4.38,1.22,3.15,8.26-8.26-3.15-1.22-4.38a.77.77,0,0,0-1-.54.78.78,0,0,0-.54,1l.92,3.27-2.25-.86-1.25-4.49a.78.78,0,1,0-1.5.42l.95,3.37-3.28-1.24a.78.78,0,1,0-.55,1.45l3.16,1.21L1239,159.3a.78.78,0,1,0,.76,1.36l3.87-2.16,2.29.87-2.83,1.58a.78.78,0,0,0-.3,1.06.79.79,0,0,0,1.06.3l4-2.22,7.86,3-7.86,3-4-2.21a.78.78,0,1,0-.76,1.36l2.83,1.58-2.29.88-3.87-2.16a.78.78,0,1,0-.76,1.35l2.73,1.53-3.16,1.21a.78.78,0,0,0,.28,1.5.82.82,0,0,0,.28,0l3.28-1.25-.95,3.38a.78.78,0,0,0,.54,1l.21,0a.78.78,0,0,0,.75-.57l1.25-4.48,2.25-.86-.92,3.27a.78.78,0,0,0,.54,1l.21,0a.78.78,0,0,0,.75-.57l1.22-4.38,8.26-3.14-3.15,8.26-4.38,1.22a.78.78,0,0,0,.42,1.5l3.27-.92-.86,2.25-4.49,1.25a.78.78,0,0,0,.42,1.5l3.38-.95-1.25,3.28a.78.78,0,1,0,1.45.56l1.21-3.16,1.52,2.73a.78.78,0,0,0,.68.4.77.77,0,0,0,.38-.1.79.79,0,0,0,.3-1.06l-2.16-3.87.87-2.29,1.58,2.83a.78.78,0,1,0,1.36-.76l-2.21-4,3-7.86,3,7.86-2.22,4a.78.78,0,0,0,.3,1.06.79.79,0,0,0,1.06-.3l1.58-2.83.87,2.29-2.16,3.87a.78.78,0,0,0,1.36.76l1.52-2.73,1.21,3.16a.77.77,0,0,0,.73.5.81.81,0,0,0,.28,0,.78.78,0,0,0,.45-1l-1.25-3.28,3.38.95a.77.77,0,0,0,1-.54.78.78,0,0,0-.54-1l-4.49-1.25-.85-2.25,3.27.92a.77.77,0,0,0,1-.54.78.78,0,0,0-.54-1l-4.38-1.22-3.15-8.26,8.26,3.14,1.22,4.38a.78.78,0,0,0,.75.57l.21,0a.78.78,0,0,0,.54-1l-.91-3.27,2.25.86,1.26,4.48a.78.78,0,0,0,.75.57l.21,0a.78.78,0,0,0,.54-1l-.95-3.38,3.28,1.25a.81.81,0,0,0,.28,0,.78.78,0,0,0,.28-1.5Z"/><path class="cls-2" d="M2303.67,123.31l-6.95-2.65,6-3.35a1.71,1.71,0,0,0-1.67-3l-8.5,4.75-5-1.92,6.23-3.47a1.71,1.71,0,1,0-1.67-3l-8.72,4.87L2266.07,109l17.28-6.58,8.72,4.87a1.65,1.65,0,0,0,.83.22,1.71,1.71,0,0,0,.83-3.21l-6.23-3.47,5-1.91,8.5,4.74a1.69,1.69,0,0,0,.83.22,1.71,1.71,0,0,0,.84-3.2l-6-3.34,6.95-2.65a1.71,1.71,0,0,0-1.22-3.2l-7.2,2.75,2.08-7.42a1.71,1.71,0,1,0-3.29-.92l-2.76,9.86-4.94,1.88,2-7.18a1.71,1.71,0,1,0-3.29-.92l-2.69,9.62L2264.22,106l6.91-18.15,9.62-2.69a1.71,1.71,0,1,0-.92-3.29l-7.18,2,1.88-4.94,9.86-2.76a1.71,1.71,0,0,0-.92-3.29L2276,75l2.74-7.2a1.71,1.71,0,1,0-3.19-1.22l-2.65,7-3.35-6a1.71,1.71,0,0,0-3,1.67l4.74,8.5-1.92,5L2266,76.52a1.71,1.71,0,0,0-3,1.67l4.87,8.72-6.58,17.28-6.58-17.28,4.87-8.72a1.71,1.71,0,1,0-3-1.67l-3.48,6.23-1.92-5,4.74-8.5a1.71,1.71,0,0,0-3-1.67l-3.35,6-2.65-7a1.71,1.71,0,1,0-3.19,1.22l2.74,7.2-7.42-2.08a1.71,1.71,0,1,0-.92,3.29L2248,79l1.88,4.94-7.18-2a1.71,1.71,0,0,0-.92,3.29l9.62,2.69,6.92,18.15-18.15-6.92-2.69-9.62a1.71,1.71,0,1,0-3.29.92l2,7.18-4.94-1.88-2.76-9.86a1.71,1.71,0,1,0-3.29.92l2.08,7.42-7.19-2.75a1.71,1.71,0,1,0-1.22,3.2l6.95,2.65-6,3.34a1.71,1.71,0,0,0,.84,3.2,1.69,1.69,0,0,0,.83-.22l8.5-4.74,5,1.91-6.23,3.47a1.71,1.71,0,0,0,.84,3.21,1.65,1.65,0,0,0,.83-.22l8.72-4.87,17.28,6.58-17.28,6.58-8.72-4.87a1.71,1.71,0,0,0-1.67,3l6.23,3.47-5,1.92-8.5-4.75a1.71,1.71,0,1,0-1.67,3l6,3.35-6.95,2.65a1.71,1.71,0,0,0,1.22,3.2l7.19-2.74-2.08,7.42a1.71,1.71,0,0,0,3.29.92l2.76-9.86,4.94-1.88-2,7.18a1.72,1.72,0,0,0,1.18,2.11,2,2,0,0,0,.46.06,1.71,1.71,0,0,0,1.65-1.25l2.69-9.62,18.15-6.91-6.92,18.14-9.62,2.7a1.71,1.71,0,0,0,.92,3.29l7.18-2L2248,139l-9.85,2.76a1.71,1.71,0,1,0,.92,3.29l7.42-2.08-2.74,7.2a1.71,1.71,0,1,0,3.19,1.22l2.65-7,3.35,6a1.71,1.71,0,0,0,1.49.88,1.75,1.75,0,0,0,.84-.22,1.72,1.72,0,0,0,.66-2.33l-4.74-8.5,1.92-5,3.48,6.23a1.71,1.71,0,1,0,3-1.67l-4.87-8.72,6.58-17.27,6.58,17.27-4.87,8.72a1.72,1.72,0,0,0,.66,2.33,1.7,1.7,0,0,0,.84.22,1.72,1.72,0,0,0,1.49-.87l3.47-6.23,1.92,5-4.74,8.5a1.72,1.72,0,0,0,.66,2.33,1.76,1.76,0,0,0,.84.22,1.71,1.71,0,0,0,1.49-.88l3.35-6,2.65,7a1.71,1.71,0,0,0,1.6,1.1,1.81,1.81,0,0,0,.61-.11,1.71,1.71,0,0,0,1-2.21L2276,143l7.42,2.08a1.71,1.71,0,0,0,.92-3.29l-9.86-2.76-1.88-4.94,7.18,2a1.69,1.69,0,0,0,2.11-1.19,1.71,1.71,0,0,0-1.19-2.11l-9.62-2.7-6.91-18.14,18.15,6.91,2.69,9.62a1.71,1.71,0,0,0,1.65,1.25,2,2,0,0,0,.46-.06,1.72,1.72,0,0,0,1.18-2.11l-2-7.18,4.94,1.88,2.76,9.86a1.71,1.71,0,0,0,1.65,1.25,1.76,1.76,0,0,0,.46-.06,1.72,1.72,0,0,0,1.18-2.11l-2.08-7.42,7.2,2.74a1.68,1.68,0,0,0,.61.11,1.71,1.71,0,0,0,.61-3.31Z"/><path class="cls-1" d="M2574,206.52a4.16,4.16,0,1,1,4.16,4.16A4.16,4.16,0,0,1,2574,206.52Z"/><path class="cls-1" d="M2632.46,148.18a8.34,8.34,0,1,1,8.33,8.34A8.34,8.34,0,0,1,2632.46,148.18Z"/><path class="cls-1" d="M2803.74,195.52a4.49,4.49,0,1,1,4.49,4.49A4.49,4.49,0,0,1,2803.74,195.52Z"/><ellipse class="cls-1" cx="2592.29" cy="159.12" rx="6.35" ry="6.34"/><path class="cls-1" d="M2714.61,197a8.34,8.34,0,1,1,8.34,8.33A8.34,8.34,0,0,1,2714.61,197Z"/><path class="cls-1" d="M2739.21,135.1a4.95,4.95,0,1,1-4.95-4.95A4.94,4.94,0,0,1,2739.21,135.1Z"/><path class="cls-1" d="M2667,116.74a6,6,0,1,1-6-6A6,6,0,0,1,2667,116.74Z"/><path class="cls-1" d="M2623.62,162.18a3.36,3.36,0,1,1-3.36-3.36A3.35,3.35,0,0,1,2623.62,162.18Z"/><path class="cls-1" d="M2703.9,147.37a2.75,2.75,0,1,1-2.74-2.75A2.75,2.75,0,0,1,2703.9,147.37Z"/><path class="cls-1" d="M2761.48,6.71A6.72,6.72,0,1,1,2754.76,0,6.72,6.72,0,0,1,2761.48,6.71Z"/><path class="cls-1" d="M2736.09,191.88a3.27,3.27,0,1,1-3.27-3.27A3.27,3.27,0,0,1,2736.09,191.88Z"/><path class="cls-2" d="M2744.2,68.34l-2.45-1h0l1.3-.88a1.33,1.33,0,0,0-1.49-2.21l-2.77,1.88-3.09-1.22h0l3.71-2.51a1.33,1.33,0,0,0-1.49-2.21l-5.22,3.54L2729,62.23l6.43-4.35a1.33,1.33,0,0,0-1.49-2.21L2726,61.05l-3.89-1.54,9.27-6a1.24,1.24,0,0,0,.58-1.12,1.38,1.38,0,0,0-.58-1.11l-9.27-5.91,3.84-1.6,8,5.43a1.37,1.37,0,0,0,.75.22,1.33,1.33,0,0,0,.75-2.44L2729,42.63h0l3.66-1.48,5.21,3.53a1.33,1.33,0,0,0,1.49-2.21l-3.69-2.5,3.08-1.22h0l2.75,1.87a1.37,1.37,0,0,0,.75.22,1.33,1.33,0,0,0,.75-2.43l-1.29-.87h0l2.45-1a1.36,1.36,0,0,0,.75-1.76,1.32,1.32,0,0,0-1.71-.75l-2.92,1.17h0l.41-2.4a1.33,1.33,0,0,0-1.09-1.54,1.36,1.36,0,0,0-1.54,1.09l-.68,4h0l-3.09,1.23.89-5.2a1.33,1.33,0,1,0-2.63-.45l-1.16,6.81h0l-3,1.22,1.21-7.15a1.33,1.33,0,1,0-2.62-.44l-1.49,8.77-3.66,1.48,2-11.18a1.55,1.55,0,0,0-.37-1.17,1.24,1.24,0,0,0-1.18-.38L2711,32l1.49-3.67h0l8.79-1.49a1.33,1.33,0,0,0-.44-2.63l-7.18,1.22v0l1.22-3h0l6.83-1.17a1.33,1.33,0,0,0,1.09-1.53,1.35,1.35,0,0,0-1.54-1.09l-5.22.89v0l1.22-3.08,4-.69a1.33,1.33,0,1,0-.45-2.62l-2.43.41v0l1.18-2.88a1.36,1.36,0,0,0-.75-1.76,1.31,1.31,0,0,0-1.7.75l-1,2.45h0l-.86-1.26a1.33,1.33,0,1,0-2.2,1.49L2715,15h0l-1.22,3v.05h0l-2.53-3.74a1.33,1.33,0,1,0-2.21,1.49l3.52,5.21v0l-1.49,3.63h0l-4.37-6.44a1.33,1.33,0,0,0-2.21,1.49l5.41,8h0l-1.55,3.83-6-9.21a1.4,1.4,0,0,0-2.24,0l-6,9.21-1.54-3.83h0l5.41-8a1.33,1.33,0,1,0-2.2-1.49l-4.37,6.44h0L2690,21.06v0l3.53-5.21a1.33,1.33,0,1,0-2.21-1.49l-2.53,3.74h0V18l-1.22-3h0l1.89-2.79a1.33,1.33,0,0,0-2.21-1.49l-.85,1.26h0l-1-2.45a1.31,1.31,0,0,0-1.7-.75,1.35,1.35,0,0,0-.74,1.76l1.17,2.88,0,0-2.43-.41a1.35,1.35,0,0,0-1.54,1.09,1.34,1.34,0,0,0,1.09,1.54l4,.69,1.22,3.08v0l-5.23-.89a1.35,1.35,0,0,0-1.54,1.09,1.33,1.33,0,0,0,1.09,1.53l6.83,1.17h0l1.22,3v0l-7.18-1.22a1.35,1.35,0,0,0-1.54,1.09,1.34,1.34,0,0,0,1.09,1.54l8.79,1.49h0l1.49,3.67-11.23-2a1.24,1.24,0,0,0-1.17.38,1.55,1.55,0,0,0-.37,1.17l2,11.18-3.65-1.48-1.49-8.77a1.33,1.33,0,0,0-2.63.44l1.21,7.15-3-1.22h0L2670,32a1.33,1.33,0,1,0-2.63.45l.89,5.2-3.09-1.23h0l-.68-4a1.33,1.33,0,0,0-2.63.44l.41,2.4h0l-2.93-1.17a1.32,1.32,0,0,0-1.71.75,1.36,1.36,0,0,0,.75,1.76l2.45,1h0l-1.29.87a1.33,1.33,0,0,0,.75,2.43,1.38,1.38,0,0,0,.75-.22l2.75-1.87h0l3.08,1.22-3.69,2.5a1.33,1.33,0,1,0,1.49,2.21l5.21-3.53,3.66,1.48h0L2667.1,47a1.33,1.33,0,0,0,.75,2.44,1.37,1.37,0,0,0,.75-.22l8-5.43,3.84,1.6-9.27,5.91a1.38,1.38,0,0,0-.59,1.11,1.25,1.25,0,0,0,.59,1.12l9.27,6-3.89,1.54-7.94-5.39a1.33,1.33,0,1,0-1.49,2.21l6.43,4.35-3.62,1.53-5.22-3.54a1.33,1.33,0,1,0-1.49,2.21l3.71,2.51h0l-3.09,1.22L2661,64.28a1.33,1.33,0,0,0-1.49,2.21l1.3.88h0l-2.45,1a1.32,1.32,0,0,0-.75,1.71,1.27,1.27,0,0,0,1.71.74l2.95-1.16-.42,2.42a1.33,1.33,0,0,0,1.09,1.54l.23,0a1.34,1.34,0,0,0,1.31-1.11l.69-4h0l3.09-1.22h0l-.89,5.23a1.33,1.33,0,0,0,1.09,1.54l.22,0a1.34,1.34,0,0,0,1.32-1.11l1.16-6.84h0l3-1.22h0L2673,72a1.33,1.33,0,0,0,1.09,1.54l.22,0a1.34,1.34,0,0,0,1.32-1.11l1.49-8.82,3.7-1.48-2.08,11.23a1.54,1.54,0,0,0,.37,1.17,1.37,1.37,0,0,0,1.17.37l11.18-2-1.43,3.66-8.8,1.49a1.33,1.33,0,0,0,.45,2.63l7.16-1.22-1.21,3.06-6.84,1.16a1.33,1.33,0,0,0,.44,2.63l5.21-.89-1.22,3.07v0l-4,.68a1.33,1.33,0,1,0,.45,2.63l2.4-.41h0l-1.17,2.93a1.3,1.3,0,0,0,.74,1.7.81.81,0,0,0,.48.1,1.34,1.34,0,0,0,1.22-.79l1-2.49.87,1.28a1.35,1.35,0,0,0,1.11.58,1.3,1.3,0,0,0,.75-.23,1.34,1.34,0,0,0,.36-1.85l-1.89-2.78,1.27-3,2.48,3.67a1.31,1.31,0,0,0,1.1.58,1.26,1.26,0,0,0,.75-.23,1.33,1.33,0,0,0,.36-1.85l-3.52-5.2h0l1.49-3.66,4.38,6.45a1.31,1.31,0,0,0,1.1.59,1.33,1.33,0,0,0,1.1-2.08l-5.4-8,1.54-3.83,6,9.22a1.37,1.37,0,0,0,2.24,0l6-9.22,1.55,3.83-5.41,8a1.33,1.33,0,0,0,1.11,2.08,1.31,1.31,0,0,0,1.1-.59l4.38-6.45,1.48,3.66h0l-3.52,5.2a1.33,1.33,0,0,0,.35,1.85,1.29,1.29,0,0,0,.75.23,1.32,1.32,0,0,0,1.1-.58l2.48-3.67,1.28,3-1.89,2.78a1.34,1.34,0,0,0,.35,1.85,1.3,1.3,0,0,0,.75.23,1.33,1.33,0,0,0,1.1-.58l.87-1.28,1,2.49a1.33,1.33,0,0,0,1.22.79.79.79,0,0,0,.48-.1,1.3,1.3,0,0,0,.75-1.7l-1.18-2.93h0l2.41.41a1.31,1.31,0,0,0,1.54-1.09,1.34,1.34,0,0,0-1.09-1.54l-4-.68v0l-1.22-3.07,5.21.89a1.33,1.33,0,1,0,.45-2.63l-6.84-1.16-1.21-3.06,7.16,1.22a1.33,1.33,0,0,0,.44-2.63l-8.79-1.49-1.43-3.66,11.17,2a1.38,1.38,0,0,0,1.18-.37,1.54,1.54,0,0,0,.37-1.17l-2.08-11.23,3.7,1.48,1.5,8.82a1.33,1.33,0,0,0,1.31,1.11l.22,0a1.34,1.34,0,0,0,1.09-1.54l-1.22-7.19h0l3,1.22h0l1.16,6.84a1.33,1.33,0,0,0,1.31,1.11l.23,0a1.34,1.34,0,0,0,1.09-1.54l-.89-5.23h0l3.09,1.22h0l.69,4a1.34,1.34,0,0,0,1.32,1.11l.22,0a1.33,1.33,0,0,0,1.09-1.54l-.41-2.42,2.95,1.16a1.32,1.32,0,1,0,1-2.45Zm-25-21.72,9.05,5.8-9.05,5.86-7.29-2.88,1-2.5a1.48,1.48,0,0,0,0-1l-1-2.51,7.24-2.88Zm-9,5.8-.75,2-1,2.5-.74,2-2,.75-2.5,1-2,.75-2-.75-2.5-1-2-.75-.75-2-1-2.5-.75-2,.75-2,1-2.5.75-2,2-.75,2.5-1,2-.75,2,.75,2.5,1,2,.75.74,2,1,2.5Zm10.65-19.54-2,11L2711,47l-1-2.51a1.27,1.27,0,0,0-.8-.74l-2.5-1,3.2-7.93Zm-19.54-7.4,5.86,9.05-2.88,7.29-2.5-1a1.49,1.49,0,0,0-1,0l-2.51,1-2.87-7.29Zm-19.54,7.4,10.91,2,3.2,7.93-2.51,1a1.25,1.25,0,0,0-.79.74l-1,2.51-7.88-3.14Zm-7.41,19.54,9.06-5.8.05-.05,7.24,2.88-1,2.51a1.47,1.47,0,0,0,0,1l1,2.5-7.29,2.88ZM2681.75,72l2-11,7.88-3.14,1,2.55a1.37,1.37,0,0,0,.79.75l2.51,1L2692.71,70Zm19.54,7.4-5.86-9.05,2.93-7.3,2.45,1a1.14,1.14,0,0,0,1,0l2.45-1,2.93,7.3Zm19.54-7.4-11-2-3.14-7.88,2.5-1a1.4,1.4,0,0,0,.8-.75l1-2.55,7.88,3.14Z"/></g></g></svg>