<svg xmlns="http://www.w3.org/2000/svg" viewBox="0 0 171.18 32.36"><defs><style>.cls-1{fill:#d9534f;}.cls-2{opacity:0.61;}.cls-3{fill:#02b875;}</style></defs><title>Element 2</title><g id="Ebene_2" data-name="Ebene 2"><g id="Ebene_1-2" data-name="Ebene 1"><path class="cls-1" d="M15.12,8.38q.1.68-1.74,3.69l-.31,0c-.25-.06-.44-.38-.59-1a5.08,5.08,0,0,0-1.69-2.75A3.33,3.33,0,0,0,8.1,7.65,3.27,3.27,0,0,0,5.88,9a3.32,3.32,0,0,0-.63,2.55,4.61,4.61,0,0,0,1,2.07A19.34,19.34,0,0,0,10,16.81a17.3,17.3,0,0,1,4,3.49A6.4,6.4,0,0,1,15.23,23a7.19,7.19,0,0,1-1.86,5.88,9.37,9.37,0,0,1-5.95,3.33,8.34,8.34,0,0,1-5.13-.64Q.14,30.5,0,29.63A6.91,6.91,0,0,1,.73,27.2a7.23,7.23,0,0,1,.95-2,.93.93,0,0,1,.84.2A2.65,2.65,0,0,1,3,26.58a6.1,6.1,0,0,0,1.89,3.55,3.81,3.81,0,0,0,2.9.61,4.64,4.64,0,0,0,3-1.77A3.79,3.79,0,0,0,11,24a18.49,18.49,0,0,0-3.53-2.89,15.14,15.14,0,0,1-3.86-3.51,7.59,7.59,0,0,1-1.25-3.08A7.37,7.37,0,0,1,3.59,9.24a7,7,0,0,1,5.08-3.1,7.41,7.41,0,0,1,4.45.53Q15,7.6,15.12,8.38Z"/><path class="cls-1" d="M31.35,24.19A21.73,21.73,0,0,1,27.86,28a7.61,7.61,0,0,1-3.73,1.63,5.12,5.12,0,0,1-4.06-.94A5.59,5.59,0,0,1,18,24.94a10.14,10.14,0,0,1,1.55-7.08A7.52,7.52,0,0,1,24.78,14a3.9,3.9,0,0,1,2.73.44,2.79,2.79,0,0,1,1.31,2q.55,3.61-6.78,7,1.22,3.3,4.17,2.85a4.3,4.3,0,0,0,2.1-1A19.3,19.3,0,0,0,31,22.18Zm-9.64-1.83Q26,20.42,25.48,17q-.26-1.68-1.48-1.49t-1.93,2.09A8.92,8.92,0,0,0,21.72,22.36Z"/><path class="cls-1" d="M44.4,22.2a19.88,19.88,0,0,1-3.6,3.85,8,8,0,0,1-3.73,1.62,5.1,5.1,0,0,1-6-4.42A10.43,10.43,0,0,1,32.73,16q2.23-3.56,5.39-4a3.72,3.72,0,0,1,2.66.48A2.89,2.89,0,0,1,42.1,14.5a1.22,1.22,0,0,1-.07.76,1.9,1.9,0,0,1-.61.59l-1.88,1.27a1.47,1.47,0,0,1-.51.26q-.24,0-.3-.31,0-.14,0-.93t0-1A2.17,2.17,0,0,0,38.14,14a1,1,0,0,0-.94-.34q-1.27.19-2,2.24a8.73,8.73,0,0,0-.4,4.45,5.2,5.2,0,0,0,1.5,3.16,3.27,3.27,0,0,0,2.84.83,4.86,4.86,0,0,0,2.54-1.22,16.81,16.81,0,0,0,2.46-2.92Z"/><path class="cls-1" d="M57.45,20.21q-3.73,5-6.1,5.32a2.27,2.27,0,0,1-1.93-.63,3.45,3.45,0,0,1-1.07-2.11Q48,20.34,50,15.8a9.84,9.84,0,0,1-2.69,1.36,20.33,20.33,0,0,1-2.87,5l-.4.06-.24-1.57a23.07,23.07,0,0,0,2-3.41A2.15,2.15,0,0,1,44,15.53a5.69,5.69,0,0,1,.48-3,2.85,2.85,0,0,1,2.29-1.91,1.23,1.23,0,0,1,1.57,1.19A9.7,9.7,0,0,1,48,15.06q2.85-.76,4.38-5.2L54,9.55,53,14.26q-.58,3-.72,4a6.67,6.67,0,0,0,0,1.85,1.87,1.87,0,0,0,.52,1.12,1.11,1.11,0,0,0,1,.3A2,2,0,0,0,54.93,21q.51-.51,2.22-2.76Z"/><path class="cls-1" d="M70.51,18.22A21.73,21.73,0,0,1,67,22a7.61,7.61,0,0,1-3.73,1.63,5.12,5.12,0,0,1-4.06-.93A5.59,5.59,0,0,1,57.16,19a10.14,10.14,0,0,1,1.55-7.08A7.52,7.52,0,0,1,63.94,8a3.9,3.9,0,0,1,2.73.44,2.79,2.79,0,0,1,1.31,2q.55,3.61-6.78,7,1.22,3.3,4.17,2.85a4.3,4.3,0,0,0,2.1-1,19.33,19.33,0,0,0,2.74-3.23Zm-9.64-1.83q4.28-1.94,3.76-5.32-.26-1.68-1.48-1.49t-1.93,2.09A8.92,8.92,0,0,0,60.87,16.39Z"/><path class="cls-1" d="M80.56,16.69a25.34,25.34,0,0,1-3.31,3.8,5.73,5.73,0,0,1-2.9,1.5,2.92,2.92,0,0,1-2.63-.89,5.52,5.52,0,0,1-1.44-3.18A17.78,17.78,0,0,1,70.45,13l.34-2.75-1.33.27.14-2.82,1.65-.32.81-5.69L76.57,0l-.88,6.35,2.44-.52L78,8.6l-2.67.62-.57,4.09a12.24,12.24,0,0,0-.11,3.33,2.1,2.1,0,0,0,.61,1.27,1.31,1.31,0,0,0,1.14.35A3.25,3.25,0,0,0,78,17.44a17,17,0,0,0,2.21-2.76Z"/><path class="cls-1" d="M103.23,8.38q.1.68-1.74,3.69l-.31,0q-.37-.09-.59-1A5.07,5.07,0,0,0,98.9,8.41a3.33,3.33,0,0,0-2.69-.76A3.27,3.27,0,0,0,94,9a3.32,3.32,0,0,0-.63,2.55,4.61,4.61,0,0,0,1,2.07,19.39,19.39,0,0,0,3.83,3.18,17.26,17.26,0,0,1,4,3.49A6.4,6.4,0,0,1,103.34,23a7.18,7.18,0,0,1-1.86,5.88,9.37,9.37,0,0,1-5.95,3.33,8.34,8.34,0,0,1-5.13-.64q-2.15-1.09-2.28-2a6.91,6.91,0,0,1,.72-2.43,7.21,7.21,0,0,1,.95-2,.93.93,0,0,1,.84.2,2.64,2.64,0,0,1,.5,1.15A6.1,6.1,0,0,0,93,30.13a3.81,3.81,0,0,0,2.9.61A4.64,4.64,0,0,0,99,29a3.78,3.78,0,0,0,.11-5,18.49,18.49,0,0,0-3.53-2.89,15.15,15.15,0,0,1-3.86-3.51,7.6,7.6,0,0,1-1.25-3.08A7.37,7.37,0,0,1,91.7,9.25a7,7,0,0,1,5.08-3.1,7.41,7.41,0,0,1,4.45.53Q103.11,7.6,103.23,8.38Z"/><path class="cls-1" d="M125.41,23.28a37.11,37.11,0,0,1-3.47,4.06,4.23,4.23,0,0,1-2.18,1.15q-2.76.42-3.34-4.47a18.27,18.27,0,0,1-2.66,4.17,4.87,4.87,0,0,1-2.86,1.65,3.21,3.21,0,0,1-2.83-1,5.81,5.81,0,0,1-1.61-3.37,9.59,9.59,0,0,1,.68-5.21,12,12,0,0,1,3.1-4.4A7.67,7.67,0,0,1,114,13.76a3.12,3.12,0,0,1,3.36,1.54l3.27-2.52,1-.15L120.84,18a22.36,22.36,0,0,0-.38,5.47q.23,1.5,1.29,1.34a2.4,2.4,0,0,0,1.39-1q.71-.85,2-2.56Zm-12.63,2.91q1.75-.27,2.84-3.48a12.17,12.17,0,0,0,.71-5.72,2.43,2.43,0,0,0-.67-1.46,1.43,1.43,0,0,0-1.25-.37q-1.75.27-2.85,3.47a12,12,0,0,0-.73,5.7,2.41,2.41,0,0,0,.69,1.46A1.46,1.46,0,0,0,112.78,26.19Z"/><path class="cls-1" d="M142.53,20.67q-3.38,4.87-6.26,5.31a2.41,2.41,0,0,1-2-.53,3.26,3.26,0,0,1-1.05-2.09,17.63,17.63,0,0,1,.67-5.94,10.41,10.41,0,0,0,.42-2.74q-.09-.56-.52-.49a1.39,1.39,0,0,0-.61.34,8.12,8.12,0,0,0-.75.81q-.38.47-.83,1.13t-.84,1.27l-.8,1.28a3.65,3.65,0,0,0-.55,1.78,26.55,26.55,0,0,0,.07,2.77c.06.62.17,1.46.33,2.5l-3.72,1.5q-.55-2.33-.73-3.48a21.32,21.32,0,0,1-.16-5.42,35,35,0,0,1,1.24-6l4.13-1.47a41.08,41.08,0,0,0-.9,6,33.81,33.81,0,0,1,3.87-5.11,5.35,5.35,0,0,1,2.8-1.69,1.92,1.92,0,0,1,1.58.45,2.48,2.48,0,0,1,.85,1.59,18,18,0,0,1-.66,5.74,13.1,13.1,0,0,0-.51,3.58q.16,1,1,.92,1.28-.19,3.62-4Z"/><path class="cls-1" d="M152.56,19.15a25.33,25.33,0,0,1-3.31,3.8,5.73,5.73,0,0,1-2.9,1.5,2.92,2.92,0,0,1-2.63-.89,5.52,5.52,0,0,1-1.44-3.18,17.76,17.76,0,0,1,.17-4.93l.34-2.75-1.33.27.14-2.82,1.65-.32.81-5.69,4.52-1.67-.88,6.34,2.44-.52L150,11.06l-2.67.62-.57,4.09a12.22,12.22,0,0,0-.11,3.33,2.1,2.1,0,0,0,.61,1.27,1.31,1.31,0,0,0,1.14.35A3.25,3.25,0,0,0,150,19.9a17,17,0,0,0,2.21-2.76Z"/><path class="cls-1" d="M171.18,16.31a37.1,37.1,0,0,1-3.47,4.06,4.23,4.23,0,0,1-2.18,1.16q-2.76.42-3.34-4.47a18.27,18.27,0,0,1-2.66,4.17,4.87,4.87,0,0,1-2.86,1.65,3.21,3.21,0,0,1-2.83-1,5.81,5.81,0,0,1-1.61-3.37,9.59,9.59,0,0,1,.68-5.21A12,12,0,0,1,156,8.85a7.67,7.67,0,0,1,3.75-2.07,3.12,3.12,0,0,1,3.36,1.54l3.27-2.52,1-.15L166.61,11a22.36,22.36,0,0,0-.38,5.47q.23,1.5,1.29,1.34a2.4,2.4,0,0,0,1.39-1q.71-.85,2-2.56Zm-12.63,2.91q1.74-.27,2.84-3.48a12.17,12.17,0,0,0,.71-5.72,2.43,2.43,0,0,0-.67-1.46,1.43,1.43,0,0,0-1.25-.37q-1.74.27-2.85,3.47a12,12,0,0,0-.73,5.7,2.42,2.42,0,0,0,.7,1.46A1.45,1.45,0,0,0,158.55,19.21Z"/><g class="cls-2"><path class="cls-3" d="M.73,27.2A6.91,6.91,0,0,0,0,29.63q.13.87,2.28,2a7.29,7.29,0,0,0,2.8.73L1.55,25.38A16.19,16.19,0,0,0,.73,27.2Z"/><path class="cls-3" d="M8.68,6.15a7,7,0,0,0-5.08,3.1,7.59,7.59,0,0,0-1.35,4.32l3,5.85a24.94,24.94,0,0,0,2.2,1.71A18.49,18.49,0,0,1,11,24a3.79,3.79,0,0,1-.11,5,5.16,5.16,0,0,1-.48.5l.72,1.41a9.66,9.66,0,0,0,2.27-2A7.19,7.19,0,0,0,15.23,23,6.4,6.4,0,0,0,14,20.3a17.3,17.3,0,0,0-4-3.49,19.34,19.34,0,0,1-3.83-3.18,4.61,4.61,0,0,1-1-2.07A3.32,3.32,0,0,1,5.88,9a3.34,3.34,0,0,1,3.7-1.26L8.75,6.14Z"/><path class="cls-3" d="M18,24.94a5.59,5.59,0,0,0,2.07,3.77c.1.08.22.13.33.2L17.91,24C17.93,24.34,18,24.64,18,24.94Z"/><path class="cls-3" d="M31,22.29a18.89,18.89,0,0,1-2.66,3.13,4.3,4.3,0,0,1-2.1,1l-.36,0L27,28.63a7.58,7.58,0,0,0,.87-.61,21.6,21.6,0,0,0,3.44-3.77,6.24,6.24,0,0,1-.24-1C31,22.93,31,22.61,31,22.29Z"/><path class="cls-3" d="M22.07,17.63q.78-1.91,1.93-2.09T25.48,17a4.34,4.34,0,0,1-2.16,4.42l.58,1.13q5.4-3,4.93-6.09a2.79,2.79,0,0,0-1.31-2A3.9,3.9,0,0,0,24.78,14a6.79,6.79,0,0,0-4.09,2.32l1.11,2.17A6.33,6.33,0,0,1,22.07,17.63Z"/><path class="cls-3" d="M43.78,20.69c.11-.16.21-.33.32-.49h0a21.79,21.79,0,0,1-1.44,1.87l.73,1.42c.34-.4.67-.83,1-1.29l-.38.06Z"/><path class="cls-3" d="M36.26,23.5a5.2,5.2,0,0,1-1.5-3.16c0-.22,0-.43-.06-.64l-1.93-3.77,0,.06A10.63,10.63,0,0,0,31,22.29l.08-.1.31,2,0,.06a5,5,0,0,0,1.81,2.52,5.12,5.12,0,0,0,4,.9,7.78,7.78,0,0,0,1.5-.4L36.88,24A3.53,3.53,0,0,1,36.26,23.5Z"/><path class="cls-3" d="M41.42,15.85a1.9,1.9,0,0,0,.61-.59,1.22,1.22,0,0,0,.07-.76,2.89,2.89,0,0,0-1.32-2.09,3.72,3.72,0,0,0-2.66-.48c-.2,0-.39.08-.59.13L40,16.83Z"/><path class="cls-3" d="M53.79,21.57a1.11,1.11,0,0,1-1-.3,1.87,1.87,0,0,1-.52-1.12,6.67,6.67,0,0,1,0-1.85l.05-.37-2.16-4.22A4.78,4.78,0,0,1,48,15.06a9.7,9.7,0,0,0,.31-3.26,1.23,1.23,0,0,0-1.57-1.19,2.85,2.85,0,0,0-2.29,1.91,5.69,5.69,0,0,0-.48,3,2.15,2.15,0,0,0,1.8,1.74A23,23,0,0,1,44.1,20.2l.31,2h0a20.33,20.33,0,0,0,2.87-5A9.84,9.84,0,0,0,50,15.8q-2,4.54-1.63,7a3.45,3.45,0,0,0,1.07,2.11,2.27,2.27,0,0,0,1.93.63A7.32,7.32,0,0,0,55,23.12l-.85-1.67A1.84,1.84,0,0,1,53.79,21.57Z"/><path class="cls-3" d="M70.19,16.23a19.25,19.25,0,0,1-2.72,3.21,4.3,4.3,0,0,1-2.1,1q-2.95.45-4.17-2.85,7.33-3.42,6.78-7a2.79,2.79,0,0,0-1.31-2A3.9,3.9,0,0,0,63.94,8a7.52,7.52,0,0,0-5.23,3.86,11.22,11.22,0,0,0-1.26,2.8l4.63,9.06a6.45,6.45,0,0,0,1.21-.07A7.61,7.61,0,0,0,67,22a21.38,21.38,0,0,0,3.36-3.67c0-.16-.07-.3-.1-.47A11.14,11.14,0,0,1,70.19,16.23Zm-9-4.57Q62,9.75,63.15,9.58t1.48,1.49q.52,3.39-3.76,5.32A8.92,8.92,0,0,1,61.22,11.67Z"/><path class="cls-3" d="M80.56,16.69l-.31-2c-.51.73-.95,1.33-1.34,1.8l.72,1.4Q80.08,17.33,80.56,16.69Z"/><path class="cls-3" d="M70.19,16.23v0l.31,2-.13.16a5.27,5.27,0,0,0,1.34,2.72,2.92,2.92,0,0,0,2.63.89,4.3,4.3,0,0,0,.57-.14l-4.49-8.77A23.86,23.86,0,0,0,70.19,16.23Z"/><polygon class="cls-3" points="75.29 9.23 77.97 8.6 78.13 5.83 75.69 6.34 76.57 0 72.05 1.67 71.9 2.76 75.27 9.36 75.29 9.23"/><path class="cls-3" d="M89.78,25.23a7.21,7.21,0,0,0-.95,2,6.91,6.91,0,0,0-.72,2.43q.13.87,2.28,2a7.44,7.44,0,0,0,3.19.74L90,25.24A1.29,1.29,0,0,0,89.78,25.23Z"/><path class="cls-3" d="M96.78,6.15a7,7,0,0,0-5.08,3.1,7.83,7.83,0,0,0-1.33,3.62L94,20c.46.37,1,.75,1.53,1.15A18.49,18.49,0,0,1,99.07,24,3.78,3.78,0,0,1,99,29c-.07.09-.15.16-.23.24l.76,1.49a9.76,9.76,0,0,0,2-1.8A7.18,7.18,0,0,0,103.34,23a6.4,6.4,0,0,0-1.18-2.72,17.26,17.26,0,0,0-4-3.49,19.39,19.39,0,0,1-3.83-3.18,4.61,4.61,0,0,1-1-2.07A3.32,3.32,0,0,1,94,9a3.27,3.27,0,0,1,2.22-1.36,3.23,3.23,0,0,1,2,.3l-.94-1.84Z"/><path class="cls-3" d="M106.46,25.44a5.81,5.81,0,0,0,1.61,3.37,3.89,3.89,0,0,0,1.18.81L106.36,24A9.34,9.34,0,0,0,106.46,25.44Z"/><path class="cls-3" d="M123.14,23.83a2.4,2.4,0,0,1-1.39,1q-1.06.16-1.29-1.34a22.36,22.36,0,0,1,.38-5.47l.32-2.26-1.23-2.41-2.58,2A3.12,3.12,0,0,0,114,13.76a7.67,7.67,0,0,0-3.75,2.07,11.9,11.9,0,0,0-.87.86l1.74,3.4c.12-.48.26-1,.44-1.47q1.11-3.2,2.85-3.47a1.43,1.43,0,0,1,1.25.37,2.43,2.43,0,0,1,.67,1.46,12.17,12.17,0,0,1-.71,5.72,6.64,6.64,0,0,1-1.68,2.91l.73,1.42a23,23,0,0,0,1.75-3q.58,4.89,3.34,4.47a4.23,4.23,0,0,0,2.18-1.15,34.9,34.9,0,0,0,3.24-3.77l-.73-1.42C123.92,22.86,123.48,23.43,123.14,23.83Z"/><path class="cls-3" d="M138.61,22.66q-.86.13-1-.92a13.1,13.1,0,0,1,.51-3.58,28.38,28.38,0,0,0,.69-4.26L137,10.41a2,2,0,0,0-.68,0,5.35,5.35,0,0,0-2.8,1.69,33.81,33.81,0,0,0-3.87,5.11,41.08,41.08,0,0,1,.9-6l-4.13,1.47,0,.08,3.36,6.58c.05-.11.11-.23.18-.34l.8-1.28q.44-.71.84-1.27t.83-1.13a8.12,8.12,0,0,1,.75-.81,1.39,1.39,0,0,1,.61-.34q.44-.07.52.49a10.41,10.41,0,0,1-.42,2.74,17.63,17.63,0,0,0-.67,5.94,3.26,3.26,0,0,0,1.05,2.09,2.41,2.41,0,0,0,2,.53c1.87-.29,3.91-2,6.1-5.09l-.7-1.36Q139.73,22.49,138.61,22.66Z"/><path class="cls-3" d="M125.34,24.1q.18,1.15.73,3.48l1-.39-1.72-3.37C125.32,23.92,125.32,24,125.34,24.1Z"/><path class="cls-3" d="M143.72,23.55,142.42,21A5.17,5.17,0,0,0,143.72,23.55Z"/><path class="cls-3" d="M146.73,15.77l.57-4.09,2.67-.62.17-2.77-2.44.52.88-6.34-4.52,1.67-.77,5.4,3.39,6.64C146.7,16,146.71,15.91,146.73,15.77Z"/><path class="cls-3" d="M152.13,17.31A16.26,16.26,0,0,1,150,19.9a3.51,3.51,0,0,1-1.11.68l.91,1.79a28.55,28.55,0,0,0,2.56-3,7.38,7.38,0,0,1-.19-.87A9.38,9.38,0,0,1,152.13,17.31Z"/><path class="cls-3" d="M166.61,11l.76-5.35-1,.15L163.2,8.26l3,5.92C166.3,13.31,166.42,12.26,166.61,11Z"/><path class="cls-3" d="M158.55,19.21a1.45,1.45,0,0,1-1.27-.41,2.42,2.42,0,0,1-.7-1.46,12,12,0,0,1,.73-5.7c.12-.35.25-.67.38-1l-1.16-2.27c-.18.14-.35.27-.53.43a12,12,0,0,0-3.11,4.4,9.76,9.76,0,0,0-.77,4.06l.13-.18.31,2-.14.19a5.51,5.51,0,0,0,1.42,2.5,3.21,3.21,0,0,0,2.83,1,4.87,4.87,0,0,0,2.86-1.65,15.59,15.59,0,0,0,2-3l-.66-1.3C160.25,18.31,159.47,19.07,158.55,19.21Z"/><path class="cls-3" d="M171.18,16.31l-.31-2q-1.26,1.71-2,2.56a3.09,3.09,0,0,1-.91.78l.81,1.58C169.44,18.5,170.23,17.53,171.18,16.31Z"/><path class="cls-3" d="M57.45,20.19l-.3-2-.06.08c0,.23,0,.45.07.68A7.33,7.33,0,0,0,57.45,20.19Z"/><path class="cls-3" d="M125.18,23.58l.13.24c0-.12,0-.23,0-.35Z"/><path class="cls-3" d="M125.26,23.47l.15-.19-.31-2,0,0C125.1,22,125.17,22.74,125.26,23.47Z"/><path class="cls-3" d="M142.36,20.9l.06.11,0-.14Z"/><path class="cls-3" d="M142.39,20.86l.14-.19-.31-2,0,.05a11.1,11.1,0,0,0,.1,1.65C142.31,20.55,142.35,20.7,142.39,20.86Z"/></g></g></g></svg>